<?xml version="1.0" encoding="utf-8"?>
<!-- Generator: Adobe Illustrator 25.1.0, SVG Export Plug-In . SVG Version: 6.00 Build 0)  -->
<svg version="1.1" id="Layer_1" xmlns="http://www.w3.org/2000/svg" xmlns:xlink="http://www.w3.org/1999/xlink" x="0px" y="0px"
	 width="16px" height="16px" viewBox="0 0 16 16" style="enable-background:new 0 0 16 16;" xml:space="preserve">
<style type="text/css">
	.st0{fill:#FFFFFF;}
</style>
<g id="Layer_2_1_">
	<g>
		<path class="st0" d="M14.8,10.5c-1,3-3.7,5-6.9,5c-2.4,0-4.5-1.2-5.8-3v2.5c0,0.6-0.5,1.1-1.1,1.1C0.5,16,0,15.5,0,14.9v-4.8
			c0-0.6,0.5-1.1,1.1-1.1h4.3c0.6,0,1.1,0.5,1.1,1.1s-0.5,1.1-1.1,1.1H3.9c0.9,1.3,2.5,2.1,4.1,2.1c2.2,0,4.2-1.4,4.8-3.5
			C13,9.3,13.6,9,14.2,9.1C14.8,9.3,15.1,9.9,14.8,10.5z M16,1.1v4.8c0,0.6-0.5,1.1-1.1,1.1h-4.3c-0.6,0-1.1-0.5-1.1-1.1
			s0.5-1.1,1.1-1.1h1.5C11.2,3.5,9.7,2.7,8,2.7c-2.2,0-4.2,1.4-4.8,3.5C3,6.8,2.4,7.1,1.8,6.9C1.3,6.7,1,6.1,1.1,5.5
			c1-3,3.7-5,6.9-5c2.4,0,4.5,1.2,5.9,3V1.1c0-0.6,0.5-1.1,1.1-1.1C15.5,0,16,0.5,16,1.1z"/>
	</g>
</g>
</svg>
