<?xml version="1.0" encoding="utf-8"?>
<!-- Generator: Adobe Illustrator 25.1.0, SVG Export Plug-In . SVG Version: 6.00 Build 0)  -->
<svg version="1.1" id="Layer_1" xmlns="http://www.w3.org/2000/svg" xmlns:xlink="http://www.w3.org/1999/xlink" x="0px" y="0px"
	 width="16px" height="16px" viewBox="0 0 16 16" style="enable-background:new 0 0 16 16;" xml:space="preserve">
<style type="text/css">
	.st0{fill:#FFFFFF;}
</style>
<path class="st0" d="M15.3,0H0.6C0.4,0,0.3,0.2,0.3,0.4v15.2c0,0.3,0.2,0.4,0.4,0.4h14.7c0.3,0,0.4-0.2,0.4-0.4V0.4
	C15.7,0.2,15.5,0,15.3,0z M9.3,2.9c0-0.2,0.2-0.3,0.3-0.3h3.5c0.2,0,0.3,0.2,0.3,0.3v2.7c0,0.2-0.2,0.3-0.3,0.3H9.6
	C9.4,6,9.3,5.8,9.3,5.6C9.3,5.6,9.3,2.9,9.3,2.9z M2.4,2.9c0-0.2,0.2-0.3,0.3-0.3h3.5c0.2,0,0.3,0.2,0.3,0.3v2.7
	C6.7,5.8,6.5,6,6.3,6H2.8C2.6,6,2.4,5.8,2.4,5.6C2.4,5.6,2.4,2.9,2.4,2.9z M13.5,13.1c0,0.4-0.3,0.8-0.8,0.8H3.2
	c-0.4,0-0.8-0.3-0.8-0.8v-0.3c0-0.4,0.3-0.8,0.8-0.8h9.4c0.4,0,0.8,0.3,0.8,0.8V13.1z M13.5,9.1c0,0.4-0.3,0.8-0.8,0.8H3.3
	c-0.4,0-0.8-0.3-0.8-0.8V8.8C2.4,8.4,2.8,8,3.3,8h9.4c0.4,0,0.8,0.3,0.8,0.8L13.5,9.1L13.5,9.1z"/>
</svg>
