<?xml version="1.0" encoding="utf-8"?>
<!-- Generator: Adobe Illustrator 25.1.0, SVG Export Plug-In . SVG Version: 6.00 Build 0)  -->
<svg version="1.1" id="Layer_1" xmlns="http://www.w3.org/2000/svg" xmlns:xlink="http://www.w3.org/1999/xlink" x="0px" y="0px"
	 width="16px" height="16px" viewBox="0 0 16 16" style="enable-background:new 0 0 16 16;" xml:space="preserve">
<style type="text/css">
	.st0{fill:#FFFFFF;}
</style>
<path class="st0" d="M2.6,6.8V6.7c0-0.5,0.4-0.9,0.9-0.9H10c0.5,0,0.9,0.4,0.9,0.9v0.3c0,0.5-0.4,0.9-0.9,0.9H3.5
	C3,7.8,2.6,7.4,2.6,6.8z M15.4,2.5v13c0,0.3-0.3,0.5-0.5,0.5H3.6c-0.3,0-0.5-0.3-0.5-0.5V14H1.2c-0.3,0-0.5-0.3-0.5-0.5V4
	c0,0,0,0,0-0.1c0,0,0,0,0-0.1c0-0.1,0.1-0.2,0.1-0.3l3.5-3.5C4.3,0,4.4,0,4.5,0c0,0,0,0,0.1,0c0,0,0,0,0.1,0h7.8
	c0.3,0,0.5,0.3,0.5,0.5V2h2C15.1,2.1,15.4,2.2,15.4,2.5z M1.7,13.1h2l0,0H12V2.6l0,0V1H5.1V4c0,0.3-0.3,0.5-0.5,0.5H1.7V13.1z
	 M10.1,11.5c0.5,0,0.9-0.4,0.9-0.9v-0.3c0-0.5-0.4-0.9-0.9-0.9H3.5c-0.5,0-0.9,0.4-0.9,0.9v0.3c0,0.5,0.4,0.9,0.9,0.9H10.1z"/>
</svg>
