<?xml version="1.0" encoding="utf-8"?>
<!-- Generator: Adobe Illustrator 25.1.0, SVG Export Plug-In . SVG Version: 6.00 Build 0)  -->
<svg version="1.1" id="Layer_1" xmlns="http://www.w3.org/2000/svg" xmlns:xlink="http://www.w3.org/1999/xlink" x="0px" y="0px"
	 width="16px" height="16px" viewBox="0 0 16 16" style="enable-background:new 0 0 16 16;" xml:space="preserve">
<style type="text/css">
	.st0{fill:#FFFFFF;}
</style>
<g id="Layer_2_1_">
	<g>
		<path class="st0" d="M13.7,8.7l-8,7C5.5,15.9,5.2,16,5,16c-0.2,0-0.4-0.1-0.6-0.2C4,15.5,3.9,15,4.1,14.6L6.5,9H3
			C2.6,9,2.2,8.7,2.1,8.3C1.9,7.9,2,7.5,2.3,7.2l8-7c0.4-0.3,0.9-0.3,1.2-0.1c0.4,0.3,0.5,0.8,0.3,1.2L9.5,7H13
			c0.4,0,0.8,0.3,0.9,0.6C14.1,8,14,8.5,13.7,8.7z"/>
	</g>
</g>
</svg>
