<?xml version="1.0" encoding="utf-8"?>
<!-- Generator: Adobe Illustrator 25.1.0, SVG Export Plug-In . SVG Version: 6.00 Build 0)  -->
<svg version="1.1" id="Layer_1" xmlns="http://www.w3.org/2000/svg" xmlns:xlink="http://www.w3.org/1999/xlink" x="0px" y="0px"
	 width="16px" height="16px" viewBox="0 0 16 16" style="enable-background:new 0 0 16 16;" xml:space="preserve">
<style type="text/css">
	.st0{fill:#FFFFFF;}
</style>
<path class="st0" d="M2,13.4h13.8l0,0V0.5c0-0.2-0.1-0.3-0.2-0.4c-0.1,0-0.3-0.1-0.4-0.1h-13C1.6,0,1.1,0.2,0.7,0.5
	C0.3,0.9,0.1,1.3,0.1,1.8v12.4c0,0.4,0.2,0.9,0.6,1.2C1.1,15.8,1.7,16,2.2,16h13c0.2,0,0.4-0.1,0.4-0.2s0.2-0.3,0.2-0.4v-0.9
	c0-0.2-0.2-0.4-0.4-0.4c-0.2,0-0.4,0.2-0.4,0.4v0.8l0,0l0,0H1.9c-0.3,0-0.5-0.1-0.7-0.3c-0.2-0.2-0.4-0.4-0.4-0.6
	C0.9,13.9,1.4,13.4,2,13.4L2,13.4z M3.7,4.4V3.9c0-0.5,0.2-1,0.5-1.1h7.5c0.3,0,0.5,0.4,0.5,1.1v0.5c0,0.5-0.3,1-0.5,1H4.1
	C3.9,5.4,3.7,5,3.7,4.4L3.7,4.4z"/>
</svg>
