<?xml version="1.0" encoding="utf-8"?>
<!-- Generator: Adobe Illustrator 25.1.0, SVG Export Plug-In . SVG Version: 6.00 Build 0)  -->
<svg version="1.1" id="Layer_1" xmlns="http://www.w3.org/2000/svg" xmlns:xlink="http://www.w3.org/1999/xlink" x="0px" y="0px"
	 width="16px" height="16px" viewBox="0 0 16 16" style="enable-background:new 0 0 16 16;" xml:space="preserve">
<style type="text/css">
	.st0{fill:#FFFFFF;}
</style>
<path class="st0" d="M1.3,0C1.2,0,1,0.1,0.9,0.2C0.8,0.3,0.7,0.4,0.7,0.5v13.7v0.1C0.8,15.2,1.7,16,2.8,16h11.9
	c0.2,0,0.3-0.1,0.4-0.2c0.1-0.1,0.2-0.3,0.2-0.3V0.5c0-0.2-0.1-0.3-0.2-0.3C15,0.1,14.9,0,14.7,0H1.3z M4.9,2.4L4.9,2.4h6.2
	c0.2,0,0.3,0.1,0.4,0.2c0.1,0.1,0.2,0.3,0.2,0.4v3.9c0,0.2-0.1,0.3-0.2,0.4c-0.1,0.1-0.3,0.2-0.4,0.2H4.9c-0.2,0-0.3-0.1-0.4-0.2
	C4.4,7.3,4.3,7.1,4.3,6.9V3c0-0.2,0.1-0.3,0.2-0.4C4.6,2.5,4.8,2.4,4.9,2.4L4.9,2.4z M5.5,4v2c0,0.3,0.3,0.5,0.5,0.5h3.9
	c0.3,0,0.5-0.3,0.5-0.5V4c0-0.3-0.3-0.5-0.5-0.5H6.1C5.8,3.5,5.5,3.7,5.5,4z M2.9,11.2h11.2v2.6H2.9c-0.5,0-0.9-0.6-0.9-1.3
	c0-0.1,0-0.2,0-0.3c0-0.2,0.1-0.3,0.1-0.4c0-0.1,0.1-0.2,0.1-0.2c0-0.1,0.1-0.1,0.1-0.2C2.4,11.3,2.6,11.2,2.9,11.2L2.9,11.2z"/>
</svg>
