<?xml version="1.0" encoding="utf-8"?>
<!-- Generator: Adobe Illustrator 25.1.0, SVG Export Plug-In . SVG Version: 6.00 Build 0)  -->
<svg version="1.1" id="Layer_1" xmlns="http://www.w3.org/2000/svg" xmlns:xlink="http://www.w3.org/1999/xlink" x="0px" y="0px"
	 width="16px" height="16px" viewBox="0 0 16 16" style="enable-background:new 0 0 16 16;" xml:space="preserve">
<style type="text/css">
	.st0{fill:#FFFFFF;}
</style>
<g id="Layer_2_1_">
	<g>
		<path class="st0" d="M15.8,1.5V15c0,0.6-0.4,1-1,1H1.2c-0.5,0-1-0.5-1-1V5.5C0.2,4.7,0.9,4,1.7,4h4.4V1.5C6.1,0.7,6.7,0,7.5,0h6.8
			C15.1,0,15.8,0.7,15.8,1.5z M4.1,6.5C4.1,6.2,3.9,6,3.6,6h-1C2.4,6,2.2,6.2,2.2,6.5v1C2.2,7.8,2.4,8,2.7,8h1
			c0.3,0,0.5-0.2,0.5-0.5C4.1,7.5,4.1,6.5,4.1,6.5z M4.1,9.5C4.1,9.2,3.9,9,3.6,9h-1C2.4,9,2.2,9.2,2.2,9.5v1c0,0.3,0.2,0.5,0.5,0.5
			h1c0.3,0,0.5-0.2,0.5-0.5C4.1,10.5,4.1,9.5,4.1,9.5z M9.9,2.5C9.9,2.2,9.7,2,9.5,2h-1C8.2,2,8,2.2,8,2.5v1C8,3.8,8.2,4,8.5,4h1
			c0.3,0,0.5-0.2,0.5-0.5C9.9,3.5,9.9,2.5,9.9,2.5z M9.9,5.5C9.9,5.2,9.7,5,9.5,5h-1C8.2,5,8,5.2,8,5.5v1C8,6.8,8.2,7,8.5,7h1
			c0.3,0,0.5-0.2,0.5-0.5C9.9,6.5,9.9,5.5,9.9,5.5z M9.9,8.5C9.9,8.2,9.7,8,9.5,8h-1C8.2,8,8,8.2,8,8.5v1C8,9.8,8.2,10,8.5,10h1
			c0.3,0,0.5-0.2,0.5-0.5C9.9,9.5,9.9,8.5,9.9,8.5z M13.8,2.5c0-0.3-0.2-0.5-0.5-0.5h-1c-0.3,0-0.5,0.2-0.5,0.5v1
			c0,0.3,0.2,0.5,0.5,0.5h1c0.3,0,0.5-0.2,0.5-0.5V2.5z M13.8,5.5c0-0.3-0.2-0.5-0.5-0.5h-1c-0.3,0-0.5,0.2-0.5,0.5v1
			c0,0.3,0.2,0.5,0.5,0.5h1c0.3,0,0.5-0.2,0.5-0.5V5.5z M13.8,8.5c0-0.3-0.2-0.5-0.5-0.5h-1c-0.3,0-0.5,0.2-0.5,0.5v1
			c0,0.3,0.2,0.5,0.5,0.5h1c0.3,0,0.5-0.2,0.5-0.5V8.5z"/>
	</g>
</g>
</svg>
