<?xml version="1.0" encoding="utf-8"?>
<!-- Generator: Adobe Illustrator 25.1.0, SVG Export Plug-In . SVG Version: 6.00 Build 0)  -->
<svg version="1.1" id="Layer_1" xmlns="http://www.w3.org/2000/svg" xmlns:xlink="http://www.w3.org/1999/xlink" x="0px" y="0px"
	 width="16px" height="16px" viewBox="0 0 16 16" style="enable-background:new 0 0 16 16;" xml:space="preserve">
<style type="text/css">
	.st0{fill:#FFFFFF;}
</style>
<path class="st0" d="M3,0.5c0-0.3,0.2-0.4,0.4-0.4s0.4,0.2,0.4,0.4v2.1c0,0.3-0.2,0.4-0.4,0.4S3,2.9,3,2.6V0.5L3,0.5z M12.1,0.5v2.1
	c0,0.3,0.2,0.4,0.4,0.4S13,2.9,13,2.6V0.5c0-0.3-0.2-0.4-0.4-0.4C12.4,0.1,12.1,0.3,12.1,0.5L12.1,0.5z M15,1.7c0.5,0,1,0.4,1,1
	v12.3c0,0.5-0.4,1-1,1H1c-0.5,0-1-0.4-1-1V2.6c0-0.5,0.4-1,1-1h1.6v1.1c0,0.5,0.4,0.9,0.9,0.9c0.5,0,0.9-0.4,0.9-0.9V1.7h7.4v1.1
	c0,0.5,0.4,0.9,0.9,0.9c0.4,0,0.9-0.4,0.9-0.9V1.7H15L15,1.7z M4.7,10.6c0-0.3-0.3-0.5-0.5-0.5H2.1c-0.3,0-0.5,0.3-0.5,0.5v2
	c0,0.3,0.3,0.5,0.5,0.5h2.2c0.3,0,0.5-0.3,0.5-0.5L4.7,10.6L4.7,10.6z M4.7,5.9c0-0.4-0.2-0.5-0.4-0.5H2.1c-0.4,0-0.5,0.2-0.5,0.5v2
	c0,0.3,0.3,0.5,0.5,0.5h2.2c0.3,0,0.5-0.3,0.5-0.5L4.7,5.9L4.7,5.9z M9.6,10.6c0-0.3-0.3-0.5-0.5-0.5H6.9c-0.3,0-0.5,0.3-0.5,0.5v2
	c0,0.3,0.3,0.5,0.5,0.5h2.2c0.3,0,0.5-0.3,0.5-0.5L9.6,10.6L9.6,10.6z M9.6,5.9c0-0.3-0.3-0.5-0.5-0.5H6.9c-0.4,0-0.5,0.2-0.5,0.5v2
	c0,0.3,0.3,0.5,0.5,0.5h2.2c0.3,0,0.5-0.3,0.5-0.5L9.6,5.9L9.6,5.9z M14.4,10.6c0-0.3-0.3-0.5-0.5-0.5h-2.2c-0.3,0-0.5,0.3-0.5,0.5
	v2c0,0.3,0.3,0.5,0.5,0.5h2.2c0.3,0,0.5-0.3,0.5-0.5V10.6z M14.4,5.9c0-0.3-0.3-0.5-0.5-0.5h-2.2c-0.3,0-0.5,0.3-0.5,0.5v2
	c0,0.3,0.3,0.5,0.5,0.5h2.2c0.3,0,0.5-0.3,0.5-0.5V5.9z"/>
</svg>
