<?xml version="1.0" encoding="utf-8"?>
<!-- Generator: Adobe Illustrator 25.1.0, SVG Export Plug-In . SVG Version: 6.00 Build 0)  -->
<svg version="1.1" id="Layer_1" xmlns="http://www.w3.org/2000/svg" xmlns:xlink="http://www.w3.org/1999/xlink" x="0px" y="0px"
	 width="20px" height="20px" viewBox="0 0 20 20" style="enable-background:new 0 0 20 20;" xml:space="preserve">
<style type="text/css">
	.st0{fill:#FFFFFF;}
</style>
<g id="Layer_2_1_">
	<g>
		<path class="st0" d="M7.6,1.2h4.8c0.8,0,1.5,0.5,1.8,1.3l0.4,1.2h2.9c1.4,0,2.5,1.1,2.5,2.5v10c0,1.4-1.1,2.5-2.5,2.5h-15
			c-1.4,0-2.5-1.1-2.5-2.5v-10c0-1.4,1.1-2.5,2.5-2.5h2.9l0.4-1.2C6.1,1.8,6.8,1.2,7.6,1.2z M10,15c2.1,0,3.8-1.7,3.8-3.8
			c0-2.1-1.7-3.8-3.8-3.8c-2.1,0-3.8,1.6-3.8,3.8C6.2,13.3,7.9,15,10,15z"/>
	</g>
</g>
</svg>
