<?xml version="1.0" encoding="utf-8"?>
<!-- Generator: Adobe Illustrator 25.1.0, SVG Export Plug-In . SVG Version: 6.00 Build 0)  -->
<svg version="1.1" id="Layer_1" xmlns="http://www.w3.org/2000/svg" xmlns:xlink="http://www.w3.org/1999/xlink" x="0px" y="0px"
	 width="16px" height="16px" viewBox="0 0 16 16" style="enable-background:new 0 0 16 16;" xml:space="preserve">
<style type="text/css">
	.st0{fill:#FFFFFF;}
</style>
<g id="Layer_2_1_">
	<g>
		<path class="st0" d="M1.2,6.1L2.3,3c0.4-1.2,1.6-2,2.8-2h5.7c1.3,0,2.4,0.8,2.8,2l1.1,3.1C15.5,6.4,16,7.2,16,8v6c0,0.6-0.4,1-1,1
			h-1c-0.6,0-1-0.4-1-1v-1.5H3V14c0,0.6-0.4,1-1,1H1c-0.5,0-1-0.4-1-1V8C0,7.2,0.5,6.4,1.2,6.1z M3,8C2.4,8,2,8.4,2,9
			c0,0.6,0.4,1,1,1s1-0.4,1-1C4,8.4,3.6,8,3,8z M3.4,6h9.2l-0.8-2.3C11.6,3.3,11.3,3,10.8,3H5.2C4.7,3,4.4,3.3,4.2,3.7L3.4,6z
			 M13,10c0.6,0,1-0.4,1-1c0-0.6-0.5-1-1-1c-0.5,0-1,0.4-1,1C12,9.6,12.4,10,13,10z"/>
	</g>
</g>
</svg>
