<?xml version="1.0" encoding="utf-8"?>
<!-- Generator: Adobe Illustrator 25.1.0, SVG Export Plug-In . SVG Version: 6.00 Build 0)  -->
<svg version="1.1" id="Layer_1" xmlns="http://www.w3.org/2000/svg" xmlns:xlink="http://www.w3.org/1999/xlink" x="0px" y="0px"
	 width="16px" height="16px" viewBox="0 0 16 16" style="enable-background:new 0 0 16 16;" xml:space="preserve">
<style type="text/css">
	.st0{fill:#FFFFFF;}
</style>
<g id="Layer_2_1_">
	<g>
		<path class="st0" d="M16,8.8v6.4c0,0.3-0.2,0.5-0.5,0.5h-2c-0.3,0-0.5-0.2-0.5-0.5v-0.5H3v0.5c0,0.3-0.2,0.5-0.5,0.5h-2
			c-0.3,0-0.5-0.2-0.5-0.5V8.8C0,8,0.7,7.2,1.5,7.2S3,7.9,3,8.8v2.7h10V8.8c0-0.9,0.7-1.6,1.5-1.6C15.3,7.2,16,8,16,8.8z M2,6.2V5.1
			c0-2.4,1.8-4.3,4-4.3h4c2.2,0,4,1.9,4,4.3v1.1c-1.1,0.2-2,1.3-2,2.6v1.6H4V8.8C4,7.5,3.1,6.5,2,6.2z"/>
	</g>
</g>
</svg>
