<?xml version="1.0" encoding="utf-8"?>
<!-- Generator: Adobe Illustrator 25.1.0, SVG Export Plug-In . SVG Version: 6.00 Build 0)  -->
<svg version="1.1" id="Layer_1" xmlns="http://www.w3.org/2000/svg" xmlns:xlink="http://www.w3.org/1999/xlink" x="0px" y="0px"
	 width="16px" height="16px" viewBox="0 0 16 16" style="enable-background:new 0 0 16 16;" xml:space="preserve">
<style type="text/css">
	.st0{fill:#FFFFFF;}
</style>
<g id="Layer_2_1_">
	<g>
		<path class="st0" d="M0.5,10.8l2.7-1.2v4.8H0.8C0.4,14.4,0,14,0,13.6v-2.1C0,11.2,0.2,10.9,0.5,10.8z M12,8.5v6H9.6V12
			c0-0.9-0.7-1.6-1.6-1.6S6.4,11.1,6.4,12v2.4H4v-6c0-0.3,0.2-0.5,0.4-0.7l2.8-1.7V4.8H6c-0.2,0-0.4-0.2-0.4-0.4V3.6
			c0-0.2,0.2-0.4,0.4-0.4h1.2V2c0-0.2,0.2-0.4,0.4-0.4h0.8c0.2,0,0.4,0.2,0.4,0.4v1.2H10c0.2,0,0.4,0.2,0.4,0.4v0.8
			c0,0.2-0.2,0.4-0.4,0.4H8.8v1.3l2.8,1.7C11.9,7.9,12,8.2,12,8.5z M16,11.5v2.1c0,0.4-0.4,0.8-0.8,0.8h-2.4V9.6l2.7,1.2
			C15.8,10.9,16,11.2,16,11.5z"/>
	</g>
</g>
</svg>
