<?xml version="1.0" encoding="utf-8"?>
<!-- Generator: Adobe Illustrator 25.1.0, SVG Export Plug-In . SVG Version: 6.00 Build 0)  -->
<svg version="1.1" id="Layer_1" xmlns="http://www.w3.org/2000/svg" xmlns:xlink="http://www.w3.org/1999/xlink" x="0px" y="0px"
	 width="16px" height="16px" viewBox="0 0 16 16" style="enable-background:new 0 0 16 16;" xml:space="preserve">
<style type="text/css">
	.st0{fill:#FFFFFF;}
</style>
<g id="Layer_1_1_">
</g>
<g id="Layer_2_1_">
	<g>
		<g>
			<path class="st0" d="M8,16c-4.4,0-8-3.6-8-8s3.6-8,8-8s8,3.6,8,8S12.4,16,8,16z M7.2,8c0,0.3,0.1,0.5,0.3,0.6l3,2
				c0.3,0.3,0.8,0.2,1-0.2c0.3-0.3,0.2-0.8-0.2-1L8.8,7.6V3.8C8.8,3.3,8.4,3,8,3C7.6,3,7.2,3.3,7.2,3.8L7.2,8z"/>
		</g>
	</g>
</g>
</svg>
