<?xml version="1.0" encoding="utf-8"?>
<!-- Generator: Adobe Illustrator 25.1.0, SVG Export Plug-In . SVG Version: 6.00 Build 0)  -->
<svg version="1.1" id="Layer_1" xmlns="http://www.w3.org/2000/svg" xmlns:xlink="http://www.w3.org/1999/xlink" x="0px" y="0px"
	 width="16px" height="16px" viewBox="0 0 16 16" style="enable-background:new 0 0 16 16;" xml:space="preserve">
<style type="text/css">
	.st0{fill:#FFFFFF;}
</style>
<g id="Layer_2_1_">
	<g>
		<path class="st0" d="M15,2.3v1.4C15,5,11.9,6,8,6S1,5,1,3.7V2.3C1,1,4.1,0,8,0S15,1,15,2.3z M15,5.5v3.2C15,10,11.9,11,8,11
			s-7-1-7-2.3V5.5C2.5,6.5,5.3,7,8,7S13.5,6.5,15,5.5z M15,10.5v3.2C15,15,11.9,16,8,16s-7-1-7-2.3v-3.2c1.5,1,4.3,1.5,7,1.5
			S13.5,11.5,15,10.5z"/>
	</g>
</g>
</svg>
