<?xml version="1.0" encoding="utf-8"?>
<!-- Generator: Adobe Illustrator 25.1.0, SVG Export Plug-In . SVG Version: 6.00 Build 0)  -->
<svg version="1.1" id="Layer_1" xmlns="http://www.w3.org/2000/svg" xmlns:xlink="http://www.w3.org/1999/xlink" x="0px" y="0px"
	 width="16px" height="16px" viewBox="0 0 16 16" style="enable-background:new 0 0 16 16;" xml:space="preserve">
<style type="text/css">
	.st0{fill:#FFFFFF;}
</style>
<path class="st0" d="M15.4,1.2H13V0h-2.9v1.2H5.9V0H3v1.2H0.7c-0.4,0-0.6,0.3-0.6,0.6v13.5c0,0.4,0.3,0.6,0.6,0.6h14.5
	c0.4,0,0.6-0.3,0.6-0.6V1.8C16,1.4,15.6,1.2,15.4,1.2L15.4,1.2z M12.7,6.4l-5.4,5.4c-0.4,0.4-0.9,0.4-1.2,0L3.3,9.1
	C3,8.8,3,8.2,3.3,7.9s0.9-0.4,1.2,0l2,2.1l4.8-4.8c0.4-0.4,0.9-0.4,1.2,0C13,5.5,13,6.1,12.7,6.4L12.7,6.4z"/>
</svg>
