<?xml version="1.0" encoding="utf-8"?>
<!-- Generator: Adobe Illustrator 25.1.0, SVG Export Plug-In . SVG Version: 6.00 Build 0)  -->
<svg version="1.1" id="Layer_1" xmlns="http://www.w3.org/2000/svg" xmlns:xlink="http://www.w3.org/1999/xlink" x="0px" y="0px"
	 width="16px" height="16px" viewBox="0 0 16 16" style="enable-background:new 0 0 16 16;" xml:space="preserve">
<style type="text/css">
	.st0{fill:#FFFFFF;}
</style>
<g id="Layer_2_1_">
	<g>
		<path class="st0" d="M16,8c0,0.1,0,0.3-0.1,0.5c-1.5,3.4-4.5,5.7-7.9,5.7s-6.4-2.3-7.9-5.7C0,8.3,0,8.1,0,8c0-0.1,0-0.3,0.1-0.5
			C1.6,4.1,4.6,1.8,8,1.8s6.4,2.3,7.9,5.7C16,7.7,16,7.9,16,8z M8,4C5.8,4,4,5.8,4,8s1.8,4,4,4c2.2,0,4-1.8,4-4C12,5.8,10.2,4,8,4z
			 M10.7,8c0,1.5-1.2,2.7-2.7,2.7S5.3,9.4,5.3,8c0-0.1,0-0.2,0-0.2C5.6,7.9,5.9,8,6.2,8C7.2,8,8,7.2,8,6.2c0-0.3-0.1-0.6-0.2-0.9
			c0.1,0,0.2,0,0.2,0C9.4,5.3,10.7,6.5,10.7,8z"/>
	</g>
</g>
</svg>
