<?xml version="1.0" encoding="utf-8"?>
<!-- Generator: Adobe Illustrator 25.1.0, SVG Export Plug-In . SVG Version: 6.00 Build 0)  -->
<svg version="1.1" id="Layer_1" xmlns="http://www.w3.org/2000/svg" xmlns:xlink="http://www.w3.org/1999/xlink" x="0px" y="0px"
	 width="16px" height="16px" viewBox="0 0 16 16" style="enable-background:new 0 0 16 16;" xml:space="preserve">
<style type="text/css">
	.st0{fill:#FFFFFF;}
</style>
<g id="Layer_2_1_">
	<g>
		<path class="st0" d="M16,4.5v9c0,0.8-0.7,1.5-1.5,1.5h-13C0.7,15,0,14.3,0,13.5v-11C0,1.7,0.7,1,1.5,1h5l2,2h6
			C15.3,3,16,3.7,16,4.5z M3,7c0,0.6,0.4,1,1,1s1-0.4,1-1c0-0.5-0.4-1-1-1C3.4,6,3,6.4,3,7z M12.9,12.2l-3.3-5C9.5,7.1,9.4,7,9.2,7
			C9,7,8.8,7.1,8.8,7.2l-2,2.9l-0.7-1C6,9.1,5.8,9,5.6,9C5.5,9,5.4,9.1,5.3,9.2l-2.2,3C3,12.3,3,12.6,3,12.7C3.1,12.9,3.3,13,3.5,13
			h9c0.2,0,0.4-0.1,0.4-0.3C13,12.6,13,12.4,12.9,12.2z"/>
	</g>
</g>
</svg>
