<?xml version="1.0" encoding="utf-8"?>
<!-- Generator: Adobe Illustrator 25.1.0, SVG Export Plug-In . SVG Version: 6.00 Build 0)  -->
<svg version="1.1" id="Layer_1" xmlns="http://www.w3.org/2000/svg" xmlns:xlink="http://www.w3.org/1999/xlink" x="0px" y="0px"
	 width="16px" height="16px" viewBox="0 0 16 16" style="enable-background:new 0 0 16 16;" xml:space="preserve">
<style type="text/css">
	.st0{fill:#FFFFFF;}
</style>
<path class="st0" d="M15.4,0H0.7C0.5,0,0.4,0.1,0.2,0.2C0.2,0.4,0.1,0.6,0.1,0.7v14.6c0,0.2,0.1,0.4,0.2,0.4C0.4,15.9,0.5,16,0.7,16
	h14.6c0.2,0,0.4-0.1,0.4-0.2c0.1-0.1,0.2-0.3,0.2-0.4V0.7c0-0.2-0.1-0.4-0.2-0.4C15.7,0.1,15.6,0,15.4,0L15.4,0z M14.7,8.7L12,6.6
	c-0.1-0.1-0.3-0.2-0.4-0.2s-0.3,0.1-0.4,0.2l-3,2.6l-4-4.4c0-0.1-0.2-0.2-0.4-0.2c-0.2,0-0.4,0.1-0.5,0.2L1.4,6.8V1.3h13.4L14.7,8.7
	z M8.2,6.6C7.7,6.5,7.2,6.3,6.7,5.9C6.4,5.5,6.1,5,6.1,4.4c0-0.5,0.3-1.2,0.6-1.5c0.4-0.4,1-0.6,1.5-0.6s1.2,0.3,1.5,0.6
	c0.4,0.4,0.6,1,0.6,1.5s-0.3,1.2-0.6,1.5C9.4,6.3,8.8,6.6,8.2,6.6L8.2,6.6z"/>
</svg>
