<?xml version="1.0" encoding="utf-8"?>
<!-- Generator: Adobe Illustrator 25.1.0, SVG Export Plug-In . SVG Version: 6.00 Build 0)  -->
<svg version="1.1" id="Layer_1" xmlns="http://www.w3.org/2000/svg" xmlns:xlink="http://www.w3.org/1999/xlink" x="0px" y="0px"
	 width="16px" height="16px" viewBox="0 0 16 16" style="enable-background:new 0 0 16 16;" xml:space="preserve">
<style type="text/css">
	.st0{fill:#FFFFFF;}
</style>
<path class="st0" d="M13.4,4.9c-0.4-0.8-0.4-1.8,0.1-2.6c0.2-0.3,0.1-0.6-0.2-0.8l-2.1-1.2c-0.3-0.2-0.6-0.1-0.8,0.2
	C9.8,1.2,9,1.8,8.1,1.8c-0.9,0-1.7-0.5-2.2-1.4C5.7,0.2,5.4,0.1,5.1,0.2L3,1.5C2.7,1.7,2.6,1.9,2.7,2.3c0.4,0.9,0.5,1.8,0.1,2.6
	S1.5,6.2,0.5,6.2C0.2,6.2,0,6.4,0,6.8v2.5c0,0.4,0.3,0.5,0.5,0.6c1,0,1.8,0.4,2.3,1.2s0.4,1.8-0.1,2.6c-0.2,0.3-0.1,0.6,0.2,0.8
	L5,15.8c0.3,0.2,0.6,0.1,0.8-0.2c0.5-0.8,1.3-1.4,2.2-1.4s1.7,0.5,2.2,1.4c0.2,0.3,0.5,0.4,0.8,0.2l2.1-1.2c0.3-0.2,0.4-0.5,0.2-0.8
	c-0.4-0.9-0.5-1.8-0.1-2.6s1.3-1.2,2.3-1.2c0.4,0,0.5-0.3,0.5-0.6V6.8c0-0.4-0.3-0.5-0.5-0.6C14.7,6.2,13.8,5.7,13.4,4.9L13.4,4.9z
	 M8.1,10.9c-1.6,0-2.9-1.3-2.9-2.9s1.3-2.9,2.9-2.9S11,6.4,11,8S9.7,10.9,8.1,10.9z"/>
</svg>
