<?xml version="1.0" encoding="utf-8"?>
<!-- Generator: Adobe Illustrator 25.1.0, SVG Export Plug-In . SVG Version: 6.00 Build 0)  -->
<svg version="1.1" id="Layer_1" xmlns="http://www.w3.org/2000/svg" xmlns:xlink="http://www.w3.org/1999/xlink" x="0px" y="0px"
	 width="16px" height="16px" viewBox="0 0 16 16" style="enable-background:new 0 0 16 16;" xml:space="preserve">
<style type="text/css">
	.st0{fill:#FFFFFF;}
</style>
<g id="Layer_2_1_">
	<g>
		<path class="st0" d="M16,3.6v8.9c0,1-0.8,1.8-1.8,1.8H1.8c-1,0-1.8-0.8-1.8-1.8V3.6c0-1,0.8-1.8,1.8-1.8h12.5
			C15.2,1.8,16,2.6,16,3.6z M7.2,8.2c0-0.3-0.2-0.6-0.6-0.6H5.1c-0.3,0-0.6,0.2-0.6,0.6c0,0.3,0.2,0.6,0.6,0.6h1v0.4
			C5.5,9.6,4.6,9.5,4.1,9C3.8,8.7,3.7,8.4,3.7,8c0-0.4,0.2-0.7,0.4-1c0.6-0.6,1.5-0.6,2,0c0.2,0.2,0.6,0.2,0.8,0
			c0.2-0.2,0.2-0.6,0-0.8c-1-1-2.6-1-3.6,0C2.8,6.7,2.6,7.3,2.6,8s0.3,1.3,0.7,1.8c0.5,0.5,1.2,0.7,1.9,0.7s1.4-0.3,1.9-0.7
			c0.1-0.1,0.2-0.2,0.2-0.4V8.2z M9,6c0-0.3-0.2-0.6-0.6-0.6C8.1,5.4,7.9,5.7,7.9,6v4c0,0.3,0.2,0.6,0.6,0.6C8.7,10.6,9,10.3,9,10V6
			z M13.4,6c0-0.3-0.2-0.6-0.6-0.6h-2.4c-0.3,0-0.6,0.2-0.6,0.6v4c0,0.3,0.2,0.6,0.6,0.6c0.3,0,0.6-0.2,0.6-0.6V8.6h1.4
			C12.8,8.6,13,8.3,13,8c0-0.3-0.2-0.6-0.6-0.6H11V6.6h1.9C13.2,6.6,13.4,6.3,13.4,6z"/>
	</g>
</g>
</svg>
