<?xml version="1.0" encoding="utf-8"?>
<!-- Generator: Adobe Illustrator 25.1.0, SVG Export Plug-In . SVG Version: 6.00 Build 0)  -->
<svg version="1.1" id="Layer_1" xmlns="http://www.w3.org/2000/svg" xmlns:xlink="http://www.w3.org/1999/xlink" x="0px" y="0px"
	 width="16px" height="16px" viewBox="0 0 16 16" style="enable-background:new 0 0 16 16;" xml:space="preserve">
<style type="text/css">
	.st0{fill:#FFFFFF;}
</style>
<g id="Layer_2_1_">
	<g>
		<path class="st0" d="M16,5v2c0,0.6-0.4,1-1,1H1C0.5,8,0,7.6,0,7V5c0-0.6,0.4-1,1-1h1.3C2,3.3,1.9,2.4,2.3,1.5C2.8,0.5,3.8,0,4.8,0
			C6.1,0,6.9,0.7,8,2.1C9.1,0.7,9.9,0,11.2,0c1,0,2,0.5,2.4,1.5c0.5,1,0.4,1.8,0,2.5H15C15.6,4,16,4.5,16,5z M1,9h6v7H2
			c-0.6,0-1-0.4-1-1V9z M7.5,4C5.9,1.6,5.4,1.5,4.8,1.5c-0.7,0-1.2,0.6-1.2,1.2S4.1,4,4.8,4H7.5z M12.4,2.8c0-0.7-0.6-1.2-1.2-1.2
			c-0.6,0-1.1,0.1-2.7,2.5h2.7C11.9,4,12.4,3.4,12.4,2.8z M9,9h6v6c0,0.6-0.4,1-1,1H9L9,9z"/>
	</g>
</g>
</svg>
