<?xml version="1.0" encoding="utf-8"?>
<!-- Generator: Adobe Illustrator 25.1.0, SVG Export Plug-In . SVG Version: 6.00 Build 0)  -->
<svg version="1.1" id="Layer_1" xmlns="http://www.w3.org/2000/svg" xmlns:xlink="http://www.w3.org/1999/xlink" x="0px" y="0px"
	 width="16px" height="16px" viewBox="0 0 16 16" style="enable-background:new 0 0 16 16;" xml:space="preserve">
<style type="text/css">
	.st0{fill:#FFFFFF;}
</style>
<g id="Layer_2_1_">
	<g>
		<path class="st0" d="M3.9,10.1H0.3C0.1,9.5,0,8.7,0,8s0.1-1.5,0.3-2.1h3.6C3.8,6.5,3.7,7.3,3.7,8S3.8,9.5,3.9,10.1z M4,4.8H0.7
			c0.9-2.1,2.8-3.8,5-4.5C4.9,1.4,4.3,2.9,4,4.8z M4,11.2c0.3,1.9,0.9,3.4,1.7,4.5c-2.3-0.7-4.1-2.3-5-4.5H4z M4.9,5.9h6.2
			c0.1,0.7,0.1,1.4,0.1,2.1s0,1.5-0.1,2.1H4.9C4.8,9.5,4.8,8.8,4.8,8C4.8,7.3,4.8,6.5,4.9,5.9z M5.1,4.8C5.6,1.9,6.9,0,8,0
			s2.4,1.9,2.9,4.8H5.1z M10.9,11.2C10.4,14.1,9.1,16,8,16s-2.4-1.9-2.9-4.8H10.9z M12,4.8c-0.3-1.9-0.9-3.4-1.7-4.5
			c2.3,0.7,4.1,2.3,5,4.5H12z M12,11.2h3.3c-0.9,2.1-2.8,3.8-5,4.5C11.1,14.6,11.7,13.1,12,11.2z M16,8c0,0.7-0.1,1.5-0.3,2.1h-3.6
			c0.1-0.7,0.1-1.4,0.1-2.1s0-1.5-0.1-2.1h3.6C15.9,6.5,16,7.3,16,8z"/>
	</g>
</g>
</svg>
