<?xml version="1.0" encoding="utf-8"?>
<!-- Generator: Adobe Illustrator 25.1.0, SVG Export Plug-In . SVG Version: 6.00 Build 0)  -->
<svg version="1.1" id="Layer_1" xmlns="http://www.w3.org/2000/svg" xmlns:xlink="http://www.w3.org/1999/xlink" x="0px" y="0px"
	 width="16px" height="16px" viewBox="0 0 16 16" style="enable-background:new 0 0 16 16;" xml:space="preserve">
<style type="text/css">
	.st0{fill:#FFFFFF;}
</style>
<path class="st0" d="M9.3,4.6c-0.2,0-0.4,0.1-0.6,0.2l-1,0.6C7.7,5.4,7.5,5.5,7.3,5.5c-0.2,0-0.5-0.2-0.7-0.3L6.5,5
	C6.3,4.7,6.4,4.2,6.7,4l2-1.4c0.2-0.2,0.5-0.2,0.7-0.2c0.2,0,0.4,0,0.6,0.1l1.3,0.7c0.2,0.1,0.5,0.2,0.5,0.2l0,0l0.8-0.8l0,0L16,5.6
	l0,0l-2.2,2.6l0,0L12.5,7c-0.3-0.2-0.8-0.7-1.2-1l0,0L10,4.8C9.8,4.7,9.6,4.6,9.3,4.6L9.3,4.6z M7,11.5l-0.2-0.2
	c-0.2-0.2-0.3-0.2-0.5-0.2c-0.2,0-0.4,0.1-0.6,0.2l0,0c0.3-0.3,0.2-0.8,0-1.1l-0.2-0.2C5.4,9.9,5.3,9.8,5.1,9.8
	c-0.2,0-0.4,0.1-0.5,0.2l0.2-0.3c0.3-0.3,0.2-0.8,0-1.1H4.7C4.5,8.5,4.4,8.4,4.2,8.4C4,8.4,3.8,8.5,3.6,8.7c0.2-0.3,0.2-0.7-0.1-1.1
	L3.4,7.5C3.2,7.3,3.1,7.3,2.9,7.3S2.5,7.3,2.3,7.5L0.9,9c-0.3,0.3-0.2,0.8,0,1.1l0.2,0.2c0.1,0.2,0.3,0.2,0.5,0.2s0.3-0.1,0.5-0.2
	l-0.4,0.4c-0.3,0.3-0.2,0.8,0,1.1L1.8,12C2,12,2.1,12.1,2.4,12.1c0.2,0,0.4-0.1,0.6-0.2l0.3-0.3c-0.2,0.3-0.2,0.7,0.1,1.1l0.2,0.2
	c0,0.1,0.2,0.2,0.4,0.2c0.2,0,0.4-0.1,0.6-0.2L5,12.2c-0.3,0.3-0.2,0.8,0,1.1l0.2,0.2c0.2,0.2,0.3,0.2,0.5,0.2
	c0.2,0,0.4-0.1,0.6-0.2l0.8-0.8C7.3,12.3,7.3,11.8,7,11.5L7,11.5z M13.8,8.9l-1.9-1.8c-0.2-0.2-0.6-0.5-0.7-0.6l0,0l0,0L9.6,5.3l0,0
	C9.6,5.2,9.4,5.2,9.3,5.2c-0.1,0-0.2,0-0.3,0.1L8.1,5.9l0,0C7.8,5.9,7.6,6,7.3,6C6.9,6,6.5,5.9,6.2,5.4l0-0.1C6,5.1,5.9,4.9,5.9,4.7
	c0-0.5,0.2-0.9,0.6-1.2L7.3,3l0,0c-0.3-0.2-1-0.2-1.3,0c0,0-0.4,0.2-0.6,0.2C5,3.3,4.5,3.3,4.5,3.3l0,0l-1-0.9l0,0L0,5.9l0,0
	l1.6,1.6l0,0l0.3-0.2C2.1,7,2.3,6.8,2.5,6.8c0.5-0.1,0.9,0,1.2,0.3l0.2,0.2C4,7.4,4.2,7.7,4.3,7.9l0,0c0.2,0,0.6,0.2,0.7,0.3
	l0.2,0.2C5.4,8.7,5.6,9,5.6,9.3c0,0.1,0,0.2,0,0.2C5.8,9.6,5.9,9.7,6,9.8L6.2,10c0.2,0.2,0.3,0.4,0.4,0.7l0,0c0.2,0,0.5,0.2,0.7,0.3
	l0.2,0.2c0.4,0.4,0.5,1.1,0.2,1.6l0,0l0.4,0.3c0.3,0.2,0.8,0.2,1.1,0l0.2-0.2c0.2-0.3,0.2-0.7,0-1.1l0,0l1,0.9
	c0.3,0.2,0.8,0.2,1.1,0l0.2-0.2c0.2-0.3,0.2-0.8,0-1.1l0,0l0.2,0.2c0.3,0.2,0.8,0.2,1.1,0l0.2-0.2c0.2-0.3,0.2-0.8,0-1.1l-0.2-0.2
	l0,0c0.3,0.2,0.8,0.2,1.1-0.1l0.2-0.2C14.1,9.7,14.1,9.2,13.8,8.9L13.8,8.9z"/>
</svg>
