<?xml version="1.0" encoding="utf-8"?>
<!-- Generator: Adobe Illustrator 25.1.0, SVG Export Plug-In . SVG Version: 6.00 Build 0)  -->
<svg version="1.1" id="Layer_1" xmlns="http://www.w3.org/2000/svg" xmlns:xlink="http://www.w3.org/1999/xlink" x="0px" y="0px"
	 width="16px" height="16px" viewBox="0 0 16 16" style="enable-background:new 0 0 16 16;" xml:space="preserve">
<style type="text/css">
	.st0{fill:#FFFFFF;}
</style>
<g id="Layer_2_1_">
	<g>
		<path class="st0" d="M8,4v10.7c0,0.2-0.2,0.4-0.4,0.4H0.9c-0.5,0-0.9-0.4-0.9-0.9V4c0-0.7,0.6-1.3,1.3-1.3h5.3C7.4,2.7,8,3.3,8,4z
			 M3.6,9.3c0-0.2-0.2-0.4-0.4-0.4H2.2C2,8.9,1.8,9.1,1.8,9.3v0.9c0,0.2,0.2,0.4,0.4,0.4h0.9c0.2,0,0.4-0.2,0.4-0.4L3.6,9.3L3.6,9.3
			z M3.6,12c0-0.2-0.2-0.4-0.4-0.4H2.2c-0.2,0-0.4,0.2-0.4,0.4v0.9c0,0.2,0.2,0.4,0.4,0.4h0.9c0.2,0,0.4-0.2,0.4-0.4L3.6,12L3.6,12z
			 M2.2,6.7c0,0.1,0.1,0.2,0.2,0.2h0.8v0.8C3.3,7.9,3.4,8,3.5,8h1c0.1,0,0.2-0.1,0.2-0.2V6.9h0.8c0.1,0,0.2-0.1,0.2-0.2v-1
			c0-0.1-0.1-0.2-0.2-0.2H4.7V4.7c0-0.1-0.1-0.2-0.2-0.2h-1c-0.1,0-0.2,0.1-0.2,0.2v0.8H2.5c-0.1,0-0.2,0.1-0.2,0.2
			C2.2,5.7,2.2,6.7,2.2,6.7z M6.2,9.3c0-0.2-0.2-0.4-0.4-0.4H4.9c-0.2,0-0.4,0.2-0.4,0.4v0.9c0,0.2,0.2,0.4,0.4,0.4h0.9
			c0.2,0,0.4-0.2,0.4-0.4V9.3z M6.2,12c0-0.2-0.2-0.4-0.4-0.4H4.9c-0.2,0-0.4,0.2-0.4,0.4v0.9c0,0.2,0.2,0.4,0.4,0.4h0.9
			c0.2,0,0.4-0.2,0.4-0.4V12z M16,2.2v12c0,0.5-0.4,0.9-0.9,0.9H8.9c-0.1,0-0.2,0-0.2,0c0.1-0.3,0.2-0.5,0.2-0.8V4
			c0-0.7-0.4-1.4-0.9-1.8v0c0-0.7,0.6-1.3,1.3-1.3h5.3C15.4,0.9,16,1.5,16,2.2z M11.6,8.4c0-0.2-0.2-0.4-0.4-0.4h-0.9
			C10,8,9.8,8.2,9.8,8.4v0.9c0,0.2,0.2,0.4,0.4,0.4h0.9c0.2,0,0.4-0.2,0.4-0.4V8.4z M11.6,11.1c0-0.2-0.2-0.4-0.4-0.4h-0.9
			c-0.2,0-0.4,0.2-0.4,0.4V12c0,0.2,0.2,0.4,0.4,0.4h0.9c0.2,0,0.4-0.2,0.4-0.4V11.1z M10.2,4.9c0,0.1,0.1,0.2,0.2,0.2h0.8V6
			c0,0.1,0.1,0.2,0.2,0.2h1c0.1,0,0.2-0.1,0.2-0.2V5.2h0.8c0.1,0,0.2-0.1,0.2-0.2V4c0-0.1-0.1-0.2-0.2-0.2h-0.8V2.9
			c0-0.1-0.1-0.2-0.2-0.2h-1c-0.1,0-0.2,0.1-0.2,0.2v0.8h-0.8c-0.1,0-0.2,0.1-0.2,0.2V4.9z M14.2,8.4C14.2,8.2,14,8,13.8,8h-0.9
			c-0.2,0-0.4,0.2-0.4,0.4v0.9c0,0.2,0.2,0.4,0.4,0.4h0.9c0.2,0,0.4-0.2,0.4-0.4V8.4z M14.2,11.1c0-0.2-0.2-0.4-0.4-0.4h-0.9
			c-0.2,0-0.4,0.2-0.4,0.4V12c0,0.2,0.2,0.4,0.4,0.4h0.9c0.2,0,0.4-0.2,0.4-0.4V11.1z"/>
	</g>
</g>
</svg>
