<?xml version="1.0" encoding="utf-8"?>
<!-- Generator: Adobe Illustrator 25.1.0, SVG Export Plug-In . SVG Version: 6.00 Build 0)  -->
<svg version="1.1" id="Layer_1" xmlns="http://www.w3.org/2000/svg" xmlns:xlink="http://www.w3.org/1999/xlink" x="0px" y="0px"
	 width="16px" height="16px" viewBox="0 0 16 16" style="enable-background:new 0 0 16 16;" xml:space="preserve">
<style type="text/css">
	.st0{fill:#FFFFFF;}
</style>
<g id="Layer_2_1_">
	<g>
		<path class="st0" d="M14.2,8.9l0,4.4c0,0.1,0,0.1,0,0.2V14c0,0.6-0.5,1.1-1.1,1.1h-0.4c0,0-0.1,0-0.1,0c0,0-0.1,0-0.1,0h-1.6
			c-0.6,0-1.1-0.5-1.1-1.1v-2.4c0-0.5-0.4-0.9-0.9-0.9H7.1c-0.5,0-0.9,0.4-0.9,0.9V14c0,0.6-0.5,1.1-1.1,1.1H3.6c0,0-0.1,0-0.1,0
			c0,0-0.1,0-0.1,0H2.9c-0.6,0-1.1-0.5-1.1-1.1v-3.1c0,0,0,0,0-0.1V8.9H0.9C0.4,8.9,0,8.5,0,8c0-0.2,0.1-0.5,0.3-0.7l7.1-6.2
			C7.6,0.9,7.8,0.9,8,0.9S8.4,1,8.6,1.1l3,2.6v-1c0-0.5,0.4-0.9,0.9-0.9h0.9c0.5,0,0.9,0.4,0.9,0.9V6l1.5,1.3C15.9,7.5,16,7.7,16,8
			c0,0.5-0.4,0.9-0.9,0.9H14.2z"/>
	</g>
</g>
</svg>
