<?xml version="1.0" encoding="utf-8"?>
<!-- Generator: Adobe Illustrator 25.1.0, SVG Export Plug-In . SVG Version: 6.00 Build 0)  -->
<svg version="1.1" id="Layer_1" xmlns="http://www.w3.org/2000/svg" xmlns:xlink="http://www.w3.org/1999/xlink" x="0px" y="0px"
	 width="16px" height="16px" viewBox="0 0 16 16" style="enable-background:new 0 0 16 16;" xml:space="preserve">
<style type="text/css">
	.st0{fill:#FFFFFF;}
</style>
<g id="Layer_2_1_">
	<g>
		<g>
			<path class="st0" d="M14.2,8.9l0,4.4c0,1-0.8,1.8-1.8,1.8H3.6c-1,0-1.8-0.8-1.8-1.8V8.9H0.9C0.4,8.9,0,8.5,0,8
				c0-0.3,0.1-0.5,0.3-0.7l7.1-6.2C7.6,0.9,7.8,0.9,8,0.9c0.2,0,0.4,0.1,0.6,0.2l7.1,6.2C15.9,7.5,16,7.7,16,8
				c0,0.5-0.4,0.9-0.9,0.9L14.2,8.9L14.2,8.9z M6.9,6.2c-0.4,0-0.7,0.3-0.7,0.7v2.2c0,0.4,0.3,0.7,0.7,0.7h2.2
				c0.4,0,0.7-0.3,0.7-0.7V6.9c0-0.4-0.3-0.7-0.7-0.7C9.1,6.2,6.9,6.2,6.9,6.2z"/>
		</g>
	</g>
</g>
</svg>
