<?xml version="1.0" encoding="utf-8"?>
<!-- Generator: Adobe Illustrator 25.1.0, SVG Export Plug-In . SVG Version: 6.00 Build 0)  -->
<svg version="1.1" id="Layer_1" xmlns="http://www.w3.org/2000/svg" xmlns:xlink="http://www.w3.org/1999/xlink" x="0px" y="0px"
	 width="16px" height="16px" viewBox="0 0 16 16" style="enable-background:new 0 0 16 16;" xml:space="preserve">
<style type="text/css">
	.st0{fill:#FFFFFF;}
</style>
<g id="Layer_2_1_">
	<g>
		<path class="st0" d="M13.5,5.5c0,1.4-0.5,2.7-1.4,3.6c-0.5,0.6-1.3,1.8-1.6,2.9c0,0,0,0,0,0h-5c0,0,0,0,0,0
			c-0.3-1-1.1-2.3-1.6-2.8C3,8.1,2.5,6.9,2.5,5.5C2.5,2.6,4.8,0,8,0C11,0,13.5,2.5,13.5,5.5z M8.5,2.5C8.5,2.3,8.3,2,8,2
			C6.1,2,4.5,3.6,4.5,5.5C4.5,5.8,4.7,6,5,6c0.3,0,0.5-0.2,0.5-0.5C5.5,4.1,6.6,3,8,3C8.3,3,8.5,2.8,8.5,2.5z M5.5,13h5v1.2
			c0,0.2-0.1,0.4-0.2,0.6l-0.5,0.8C9.6,15.8,9.3,16,9,16H7c-0.3,0-0.7-0.2-0.8-0.4l-0.5-0.8c-0.1-0.2-0.2-0.4-0.2-0.6L5.5,13z"/>
	</g>
</g>
</svg>
