<?xml version="1.0" encoding="utf-8"?>
<!-- Generator: Adobe Illustrator 25.1.0, SVG Export Plug-In . SVG Version: 6.00 Build 0)  -->
<svg version="1.1" id="Layer_1" xmlns="http://www.w3.org/2000/svg" xmlns:xlink="http://www.w3.org/1999/xlink" x="0px" y="0px"
	 width="16px" height="16px" viewBox="0 0 16 16" style="enable-background:new 0 0 16 16;" xml:space="preserve">
<style type="text/css">
	.st0{fill:#FFFFFF;}
</style>
<g id="Layer_2_1_">
	<g>
		<g>
			<path class="st0" d="M14.9,9v5c0,1.1-0.9,2-2,2H3.1c-1.1,0-2-0.9-2-2V9c0-1.1,0.9-2,2-2l0.5,0V4.5C3.6,2,5.5,0,8,0s4.4,2,4.4,4.5
				V7l0.5,0C14,7,14.9,7.9,14.9,9z M10.5,4.5C10.5,3.1,9.4,2,8,2S5.5,3.1,5.5,4.5V7h4.9V4.5z M9,11c0-0.6-0.4-1-1-1s-1,0.4-1,1v1
				c0,0.5,0.4,1,1,1s1-0.4,1-1V11z"/>
		</g>
	</g>
</g>
</svg>
