<?xml version="1.0" encoding="utf-8"?>
<!-- Generator: Adobe Illustrator 25.1.0, SVG Export Plug-In . SVG Version: 6.00 Build 0)  -->
<svg version="1.1" id="Layer_1" xmlns="http://www.w3.org/2000/svg" xmlns:xlink="http://www.w3.org/1999/xlink" x="0px" y="0px"
	 width="16px" height="16px" viewBox="0 0 16 16" style="enable-background:new 0 0 16 16;" xml:space="preserve">
<style type="text/css">
	.st0{fill:none;}
</style>
<path id="Layer_2_1_" class="st0" d="M8,10.2c-0.5,0-0.8-0.2-1-0.6C6.5,9,5.5,7.6,5.4,7.4v6.4l5.3,1.8V7.4c-0.1,0.2-1.1,1.6-1.6,2.2
	C8.8,10,8.5,10.2,8,10.2z M0.4,6.8C0.2,6.8,0.1,7,0.1,7.2v7.9c0,0.3,0.3,0.6,0.6,0.4l3.8-1.8V6.1C4.3,5.7,4.1,5.4,4,5.1L0.4,6.8z
	 M15.3,4.9l-3.8,1.8v8.9l4.2-1.9c0.2-0.1,0.3-0.2,0.3-0.4V5.3C15.9,5,15.6,4.7,15.3,4.9z M8,0.5C6.1,0.5,4.7,2,4.7,3.8
	c0,1.3,0.5,1.7,3,5.4c0.2,0.3,0.6,0.3,0.7,0c2.5-3.6,3-4,3-5.4C11.4,2,9.9,0.5,8,0.5z M8,5.7c-1,0-1.9-0.8-1.9-1.9S7,2,8,2
	s1.9,0.8,1.9,1.9S9,5.7,8,5.7z"/>
</svg>
