<?xml version="1.0" encoding="utf-8"?>
<!-- Generator: Adobe Illustrator 25.1.0, SVG Export Plug-In . SVG Version: 6.00 Build 0)  -->
<svg version="1.1" id="Layer_1" xmlns="http://www.w3.org/2000/svg" xmlns:xlink="http://www.w3.org/1999/xlink" x="0px" y="0px"
	 width="16px" height="16px" viewBox="0 0 16 16" style="enable-background:new 0 0 16 16;" xml:space="preserve">
<style type="text/css">
	.st0{fill:#FFFFFF;}
</style>
<path class="st0" d="M15.5,15.7h-15c-0.3,0-0.4-0.2-0.4-0.4v-1.9c0-0.3,0.2-0.4,0.4-0.4h15.1c0.3,0,0.4,0.2,0.4,0.4v1.8
	C16,15.4,15.7,15.7,15.5,15.7z M3.4,0.4c0.9,0,1.7,0.5,2,1.3C5,2.3,4.9,2.8,4.9,3.5c0,0.2,0,0.4,0.1,0.6C4.5,4.5,4,4.7,3.4,4.7
	c-1.1,0-2.2-1-2.2-2.2S2.2,0.4,3.4,0.4L3.4,0.4z M12.6,0.4c1.1,0,2.2,1,2.2,2.2s-1,2.2-2.2,2.2c-0.6,0-1.1-0.3-1.5-0.6
	c0-0.2,0.1-0.4,0.1-0.6c0-0.6-0.2-1.2-0.5-1.8C11,0.9,11.8,0.4,12.6,0.4L12.6,0.4z M8,1.3c1.1,0,2.2,1,2.2,2.2S9.2,5.6,8,5.6
	s-2.2-1-2.2-2.2S6.9,1.3,8,1.3L8,1.3z M3.4,5.1c0.8,0,1.6,0.3,2.1,0.8c-1.1,0.8-1.9,2-1.9,3.4v0.9H0.5c-0.2,0-0.3-0.1-0.4-0.2
	C0.1,10.1,0,9.9,0,9.8l0,0V8.5C0,6.6,1.5,5.1,3.4,5.1L3.4,5.1z M12.6,5.1c1.9,0,3.4,1.5,3.4,3.4v1.3c0,0.2-0.1,0.3-0.2,0.4
	c-0.1,0.1-0.3,0.2-0.4,0.2h-3V9.4c0-1.5-0.8-2.7-1.9-3.5C11.1,5.4,11.8,5.1,12.6,5.1L12.6,5.1z M8,6c1.9,0,3.4,1.5,3.4,3.4v1.3
	c0,0.2-0.1,0.3-0.2,0.4c-0.1,0.1-0.3,0.2-0.4,0.2H5.1c-0.1,0-0.3-0.1-0.4-0.2c-0.1-0.1-0.2-0.2-0.2-0.4l0,0V9.3C4.7,7.5,6.2,6,8,6
	L8,6z"/>
</svg>
