<?xml version="1.0" encoding="utf-8"?>
<!-- Generator: Adobe Illustrator 25.1.0, SVG Export Plug-In . SVG Version: 6.00 Build 0)  -->
<svg version="1.1" id="Layer_1" xmlns="http://www.w3.org/2000/svg" xmlns:xlink="http://www.w3.org/1999/xlink" x="0px" y="0px"
	 width="16px" height="16px" viewBox="0 0 16 16" style="enable-background:new 0 0 16 16;" xml:space="preserve">
<style type="text/css">
	.st0{fill:#FFFFFF;}
</style>
<path class="st0" d="M2.9,7.1h4.5c0.3,0,0.6,0.4,0.6,1s-0.3,1-0.6,1H2.9C2.1,9.3,2.1,7.1,2.9,7.1L2.9,7.1z M2.9,2.6H13
	c0.3,0,0.6,0.5,0.6,1.2S13.4,5,13,5H2.9C2.6,5,2.3,4.5,2.3,3.8S2.6,2.6,2.9,2.6L2.9,2.6z M1.9,0.6C0.9,0.6,0,1.5,0,2.5V15
	c0,0.4,0.5,0.6,0.8,0.3l2.3-2.8h11c1,0,1.9-0.9,1.9-1.9V2.4c0-1-0.9-1.9-1.9-1.9L1.9,0.6L1.9,0.6z"/>
</svg>
