<?xml version="1.0" encoding="utf-8"?>
<!-- Generator: Adobe Illustrator 25.1.0, SVG Export Plug-In . SVG Version: 6.00 Build 0)  -->
<svg version="1.1" id="Layer_1" xmlns="http://www.w3.org/2000/svg" xmlns:xlink="http://www.w3.org/1999/xlink" x="0px" y="0px"
	 width="16px" height="16px" viewBox="0 0 16 16" style="enable-background:new 0 0 16 16;" xml:space="preserve">
<style type="text/css">
	.st0{fill:#FFFFFF;}
</style>
<g id="Layer_1_1_">
	<g>
		<path class="st0" d="M16,3.1v9.8c0,0.7-0.6,1.3-1.3,1.3H1.3c-0.7,0-1.3-0.6-1.3-1.3V3.1c0-0.7,0.6-1.3,1.3-1.3h13.3
			C15.4,1.8,16,2.4,16,3.1z M14.2,3.6H1.8v8.9h12.4L14.2,3.6L14.2,3.6z M13.3,11.6H2.7V8.9h2.4l0.8,1.5c0.2,0.3,0.6,0.3,0.8,0L8,7.7
			l0.6,1.2h2.5c0.2,0,0.4-0.2,0.4-0.4c0-0.2-0.2-0.4-0.4-0.4H9.2L8.4,6.5c-0.2-0.3-0.6-0.3-0.8,0L6.2,9.2L5.7,8.1C5.6,8,5.6,8,5.5,8
			H2.7V4.4h10.7L13.3,11.6L13.3,11.6z"/>
	</g>
</g>
</svg>
