<?xml version="1.0" encoding="utf-8"?>
<!-- Generator: Adobe Illustrator 25.1.0, SVG Export Plug-In . SVG Version: 6.00 Build 0)  -->
<svg version="1.1" id="Layer_1" xmlns="http://www.w3.org/2000/svg" xmlns:xlink="http://www.w3.org/1999/xlink" x="0px" y="0px"
	 width="16px" height="16px" viewBox="0 0 16 16" style="enable-background:new 0 0 16 16;" xml:space="preserve">
<style type="text/css">
	.st0{fill:#FFFFFF;}
</style>
<g id="Layer_2_1_">
	<g>
		<path class="st0" d="M16,2.2v8.9c0,0.7-0.6,1.3-1.3,1.3H9.3l0.4,1.3h2c0.4,0,0.7,0.3,0.7,0.7c0,0.4-0.3,0.7-0.7,0.7H4.2
			c-0.4,0-0.7-0.3-0.7-0.7c0-0.4,0.3-0.7,0.7-0.7h2l0.4-1.3H1.3c-0.7,0-1.3-0.6-1.3-1.3V2.2c0-0.7,0.6-1.3,1.3-1.3h13.3
			C15.4,0.9,16,1.5,16,2.2z M14.2,2.7H1.8v6.2h12.4L14.2,2.7L14.2,2.7z"/>
	</g>
</g>
</svg>
