<?xml version="1.0" encoding="utf-8"?>
<!-- Generator: Adobe Illustrator 25.1.0, SVG Export Plug-In . SVG Version: 6.00 Build 0)  -->
<svg version="1.1" id="Layer_1" xmlns="http://www.w3.org/2000/svg" xmlns:xlink="http://www.w3.org/1999/xlink" x="0px" y="0px"
	 width="16px" height="16px" viewBox="0 0 16 16" style="enable-background:new 0 0 16 16;" xml:space="preserve">
<style type="text/css">
	.st0{fill:#FFFFFF;}
</style>
<g id="Layer_2_1_">
	<g>
		<path class="st0" d="M3.2,4.3v0.8H0V4.3c0-1.6,1.6-2.4,1.6-2.4S3.2,2.7,3.2,4.3z M0,5.9h3.2v8c0,0.4-0.4,0.8-0.8,0.8H0.8
			c-0.4,0-0.8-0.4-0.8-0.8L0,5.9L0,5.9z M16,10.7v4h-1.6v-1.6c0-0.4-0.4-0.8-0.8-0.8s-0.8,0.4-0.8,0.8v1.6h-1.6v-1.8
			c0-1.2-1.2-1.8-1.2-1.8s-1.2,0.6-1.2,1.8v1.8H7.2v-1.6c0-0.4-0.4-0.8-0.8-0.8s-0.8,0.4-0.8,0.8v1.6H4v-4c0-0.4,0.4-0.8,0.8-0.8
			h10.4C15.6,9.9,16,10.3,16,10.7z M5.5,9.1C5.1,8.7,4.8,8.2,4.8,7.6c0-1.3,1-2.3,2.2-3.1C8,3.9,9,3.1,9.8,2.1L10,1.9l0.2,0.2
			c0.8,1,1.7,1.7,2.8,2.4c1.2,0.7,2.2,1.7,2.2,3.1c0,0.5-0.3,1-0.7,1.5H5.5z"/>
	</g>
</g>
</svg>
