<?xml version="1.0" encoding="utf-8"?>
<!-- Generator: Adobe Illustrator 25.1.0, SVG Export Plug-In . SVG Version: 6.00 Build 0)  -->
<svg version="1.1" id="Layer_1" xmlns="http://www.w3.org/2000/svg" xmlns:xlink="http://www.w3.org/1999/xlink" x="0px" y="0px"
	 width="16px" height="16px" viewBox="0 0 16 16" style="enable-background:new 0 0 16 16;" xml:space="preserve">
<style type="text/css">
	.st0{fill:#FFFFFF;}
</style>
<g id="Layer_2_1_">
	<g>
		<path class="st0" d="M16,2.5v11c0,0.8-0.7,1.5-1.5,1.5v-1.7c0-0.1-0.1-0.2-0.2-0.2h-1.5c-0.1,0-0.2,0.1-0.2,0.2V15h-9v-1.7
			c0-0.1-0.1-0.2-0.2-0.2H1.8c-0.1,0-0.2,0.1-0.2,0.2V15C0.7,15,0,14.3,0,13.5v-11C0,1.7,0.7,1,1.5,1v1.7C1.5,2.9,1.6,3,1.8,3h1.5
			c0.1,0,0.2-0.1,0.2-0.2V1h9v1.7c0,0.1,0.1,0.2,0.2,0.2h1.5c0.1,0,0.2-0.1,0.2-0.2V1C15.3,1,16,1.7,16,2.5z M3.5,5.3
			C3.5,5.1,3.4,5,3.3,5H1.8C1.6,5,1.5,5.1,1.5,5.3v1.5C1.5,6.9,1.6,7,1.8,7h1.5c0.1,0,0.2-0.1,0.2-0.2L3.5,5.3L3.5,5.3z M3.5,9.2
			C3.5,9.1,3.4,9,3.3,9H1.8C1.6,9,1.5,9.1,1.5,9.2v1.5c0,0.1,0.1,0.2,0.2,0.2h1.5c0.1,0,0.2-0.1,0.2-0.2L3.5,9.2L3.5,9.2z M14.5,5.3
			c0-0.1-0.1-0.2-0.2-0.2h-1.5c-0.1,0-0.2,0.1-0.2,0.2v1.5c0,0.1,0.1,0.2,0.2,0.2h1.5c0.1,0,0.2-0.1,0.2-0.2V5.3z M14.5,9.2
			c0-0.1-0.1-0.2-0.2-0.2h-1.5c-0.1,0-0.2,0.1-0.2,0.2v1.5c0,0.1,0.1,0.2,0.2,0.2h1.5c0.1,0,0.2-0.1,0.2-0.2V9.2z"/>
	</g>
</g>
</svg>
