<?xml version="1.0" encoding="utf-8"?>
<!-- Generator: Adobe Illustrator 25.1.0, SVG Export Plug-In . SVG Version: 6.00 Build 0)  -->
<svg version="1.1" id="Layer_1" xmlns="http://www.w3.org/2000/svg" xmlns:xlink="http://www.w3.org/1999/xlink" x="0px" y="0px"
	 width="16px" height="16px" viewBox="0 0 16 16" style="enable-background:new 0 0 16 16;" xml:space="preserve">
<style type="text/css">
	.st0{fill:#FFFFFF;}
</style>
<g id="Layer_2_1_">
	<g>
		<path class="st0" d="M0.2,5H0V3c0-1.1,0.9-2,2-2h2.2L0.2,5z M0,6h16v7c0,1.1-0.9,2-2,2H2c-1.1,0-2-0.9-2-2L0,6L0,6z M2.3,5l4-4
			h2.9l-4,4H2.3z M6.5,12.6c0,0.1,0.1,0.3,0.2,0.3c0,0,0.1,0,0.2,0S7,13,7,12.9l3.3-2.2c0.1-0.1,0.2-0.2,0.2-0.3s-0.1-0.2-0.2-0.3
			L7,8.1C6.9,8,6.8,8,6.7,8C6.6,8.1,6.5,8.2,6.5,8.3L6.5,12.6L6.5,12.6z M7.3,5l4-4H14c0.1,0,0.1,0,0.2,0l-4,4H7.3z M16,3v2h-3.7
			l3.2-3.2C15.8,2.1,16,2.5,16,3z"/>
	</g>
</g>
</svg>
