<?xml version="1.0" encoding="utf-8"?>
<!-- Generator: Adobe Illustrator 25.1.0, SVG Export Plug-In . SVG Version: 6.00 Build 0)  -->
<svg version="1.1" id="Layer_1" xmlns="http://www.w3.org/2000/svg" xmlns:xlink="http://www.w3.org/1999/xlink" x="0px" y="0px"
	 width="16px" height="16px" viewBox="0 0 16 16" style="enable-background:new 0 0 16 16;" xml:space="preserve">
<style type="text/css">
	.st0{fill:#FFFFFF;}
</style>
<path class="st0" d="M14.2,0H7.5C7,0,6.6,0.2,6.4,0.4C6,0.8,5.8,1.1,5.8,1.6v4.3C5.8,6.3,6,6.7,6.4,7c0.3,0.3,0.7,0.4,1.1,0.4h6.6
	c0.4,0,0.9-0.2,1.1-0.4c0.4-0.3,0.6-0.7,0.6-1.1V1.6c0-0.4-0.2-0.9-0.5-1.1C15.1,0.2,14.6,0,14.2,0L14.2,0z M11.4,5.3H8.6
	C8.4,5.3,8.3,5.2,8.1,5C8,4.9,8,4.7,8.1,4.5c0.1-0.2,0.3-0.3,0.5-0.3h2.8c0.2,0,0.3,0.1,0.5,0.3C12,4.7,12,4.9,11.9,5
	C11.7,5.2,11.6,5.3,11.4,5.3z M13.1,3.2H8.6C8.4,3.2,8.3,3.1,8.1,3C8,2.8,8,2.6,8.1,2.4c0.1-0.2,0.3-0.3,0.5-0.3h4.4
	c0.2,0,0.3,0.1,0.5,0.3c0.1,0.2,0.1,0.3,0,0.5C13.4,3,13.2,3.2,13.1,3.2L13.1,3.2z M14.2,8.5H7.5C7,8.5,6.6,8.7,6.4,9
	C6,9.2,5.8,9.7,5.8,10.1v4.3c0,0.4,0.2,0.9,0.5,1.1S7,16,7.5,16h6.6c0.4,0,0.9-0.2,1.1-0.4c0.3-0.3,0.5-0.7,0.5-1.1v-4.3
	c0-0.4-0.2-0.9-0.5-1.1C15.1,8.7,14.6,8.5,14.2,8.5L14.2,8.5z M11.4,13.9H8.6c-0.2,0-0.3-0.1-0.5-0.3c-0.1-0.2-0.1-0.3,0-0.5
	c0.1-0.2,0.3-0.3,0.5-0.3h2.8c0.2,0,0.3,0.1,0.5,0.3c0.1,0.2,0.1,0.3,0,0.5C11.7,13.8,11.6,13.9,11.4,13.9z M13.1,11.7H8.6
	c-0.2,0-0.3-0.1-0.5-0.3C8,11.3,8,11.1,8.1,11c0.1-0.2,0.3-0.3,0.5-0.3h4.4c0.2,0,0.3,0.1,0.5,0.3c0.1,0.2,0.1,0.3,0,0.5
	C13.4,11.7,13.2,11.7,13.1,11.7L13.1,11.7z M3.5,16H1.7c-0.8,0-1.4-0.6-1.4-1.4V1.4C0.3,0.6,0.9,0,1.7,0h1.8c0.8,0,1.4,0.6,1.4,1.4
	v13.2C4.9,15.4,4.3,16,3.5,16z"/>
</svg>
