<?xml version="1.0" encoding="utf-8"?>
<!-- Generator: Adobe Illustrator 25.1.0, SVG Export Plug-In . SVG Version: 6.00 Build 0)  -->
<svg version="1.1" id="Layer_1" xmlns="http://www.w3.org/2000/svg" xmlns:xlink="http://www.w3.org/1999/xlink" x="0px" y="0px"
	 viewBox="0 0 16 16" style="enable-background:new 0 0 16 16;" xml:space="preserve">
<style type="text/css">
	.st0{fill:#FEC544;}
</style>
<path d="M9.1,8.7c0-0.1,0-0.2,0-0.3L8.4,7.6C8.3,7.5,8.3,7.5,8.2,7.5c-0.1,0-0.1,0-0.2,0.1c-2.6,3.8-3.5,8-3.5,8.1
	c0,0.1,0,0.2,0.1,0.3h1.5v-0.1C6.6,13.4,9.1,8.8,9.1,8.7z"/>
<path d="M13.1,2.4c-0.1,0-0.2,0-0.3,0c-1.4,0.9-3.1,2.9-3.2,3c-0.1,0.1-0.1,0.2,0,0.3l0.8,0.8c0,0,0.1,0.1,0.2,0.1
	c0.1,0,0.1,0,0.2-0.1l1-1v3.4C7.9,3.1,3.2,2.3,3,2.3c-0.1,0-0.1,0-0.2,0.1L2.7,2.5l-0.1,9.7c0,0.1,0.1,0.2,0.3,0.2h1
	c0.1,0,0.1,0,0.3-0.1c0.1-0.1,0.1-0.1,0.1-0.2v-8c5.6,2.2,8.5,9.9,8.6,9.9c0,0.1,0.1,0.2,0.2,0.2c0.1,0,0.2-0.1,0.2-0.2V2.6
	C13.3,2.5,13.2,2.4,13.1,2.4z"/>
<path class="st0" d="M14.2,0H1.9C0.8,0,0,0.8,0,1.9v12.2c0,1,0.8,1.9,1.8,1.9h2.8c-0.1-0.1-0.1-0.2-0.1-0.3c0-0.1,0.9-4.3,3.5-8.1
	c0.1-0.1,0.1-0.1,0.2-0.1c0.1,0,0.1,0,0.2,0.1l0.7,0.8c0,0.1,0,0.2,0,0.3c0,0.1-2.5,4.7-3,7.2V16h8c1,0,1.8-0.8,1.8-1.8V1.9
	C16.1,0.8,15.3,0,14.2,0z M4.3,4.1v8c0,0.1,0,0.1-0.1,0.2C4,12.4,4,12.4,3.9,12.4h-1c-0.2,0-0.3-0.1-0.3-0.2l0.1-9.7l0.1-0.1
	C2.9,2.3,2.9,2.3,3,2.3c0.2,0,4.9,0.8,8.8,6.6V5.5l-1,1c-0.1,0.1-0.1,0.1-0.2,0.1c-0.1,0-0.2-0.1-0.2-0.1L9.6,5.7
	c-0.1-0.1-0.1-0.2,0-0.3c0.1-0.1,1.8-2.1,3.2-3c0.1,0,0.2,0,0.3,0c0.1,0,0.2,0.1,0.2,0.2V14c0,0.1-0.1,0.2-0.2,0.2
	c-0.1,0-0.2-0.1-0.2-0.2C12.8,14,9.9,6.3,4.3,4.1z"/>
</svg>
