<?xml version="1.0" encoding="utf-8"?>
<!-- Generator: Adobe Illustrator 25.1.0, SVG Export Plug-In . SVG Version: 6.00 Build 0)  -->
<svg version="1.1" id="Layer_1" xmlns="http://www.w3.org/2000/svg" xmlns:xlink="http://www.w3.org/1999/xlink" x="0px" y="0px"
	 width="16px" height="16px" viewBox="0 0 16 16" style="enable-background:new 0 0 16 16;" xml:space="preserve">
<style type="text/css">
	.st0{fill:#FFFFFF;}
</style>
<path class="st0" d="M14.2,0H1.9C0.8,0,0,0.8,0,1.9v12.2c0,1,0.8,1.8,1.8,1.8h2.8c-0.1-0.1-0.1-0.1-0.1-0.2S5.4,11.4,8,7.6
	c0.1-0.1,0.1-0.1,0.2-0.1s0.1,0,0.2,0.1l0.7,0.8c0,0.1,0,0.2,0,0.3s-2.5,4.7-3,7.2V16h8c1,0,1.8-0.8,1.8-1.8V1.9
	C16.1,0.8,15.3,0,14.2,0z M13.3,14c0,0.1-0.1,0.2-0.2,0.2c-0.1,0-0.2-0.1-0.2-0.2c-0.1,0-3-7.7-8.6-9.9v8c0,0.1,0,0.1-0.1,0.2
	C4,12.4,4,12.4,3.9,12.4h-1c-0.2,0-0.3-0.1-0.3-0.2l0.1-9.7l0.1-0.1C2.9,2.3,2.9,2.3,3,2.3c0.2,0,4.9,0.8,8.8,6.6V5.5l-1,1
	c-0.1,0.1-0.1,0.1-0.2,0.1c-0.1,0-0.2-0.1-0.2-0.1L9.6,5.7c-0.1-0.1-0.1-0.2,0-0.3c0.1-0.1,1.8-2.1,3.2-3c0.1,0,0.2,0,0.3,0
	c0.1,0,0.2,0.1,0.2,0.2V14z"/>
</svg>
