<?xml version="1.0" encoding="utf-8"?>
<!-- Generator: Adobe Illustrator 25.1.0, SVG Export Plug-In . SVG Version: 6.00 Build 0)  -->
<svg version="1.1" id="Layer_1" xmlns="http://www.w3.org/2000/svg" xmlns:xlink="http://www.w3.org/1999/xlink" x="0px" y="0px"
	 width="16px" height="16px" viewBox="0 0 16 16" style="enable-background:new 0 0 16 16;" xml:space="preserve">
<style type="text/css">
	.st0{fill:#FFFFFF;}
</style>
<path class="st0" d="M8,7.2c1.1,0,2.1,0.5,2.8,1.2s1.2,1.7,1.2,2.8V16H4v-4.8c0-1.1,0.5-2.1,1.2-2.8C5.9,7.6,6.9,7.2,8,7.2L8,7.2z
	 M2.7,9.6c-0.1,0.5-0.2,0.8-0.2,1.3v0.3V16H0.1v-3.6c0-0.7,0.3-1.4,0.7-1.9C1.3,10,1.9,9.7,2.7,9.6L2.7,9.6L2.7,9.6z M13.3,9.6
	c0.7,0,1.4,0.4,1.8,0.9c0.5,0.6,0.7,1.2,0.7,1.9V16h-2.4v-4.8C13.6,10.7,13.5,10.1,13.3,9.6L13.3,9.6z M2.8,4.8c0.7,0,1.4,0.4,1.7,1
	c0.4,0.6,0.4,1.4,0,2c-0.4,0.6-1,1-1.7,1S1.4,8.5,1,7.8s-0.4-1.4,0-2S2.1,4.8,2.8,4.8z M13.2,4.8c0.7,0,1.4,0.4,1.7,1
	c0.4,0.6,0.4,1.4,0,2c-0.4,0.6-1,1-1.7,1c-0.7,0-1.4-0.4-1.7-1c-0.4-0.6-0.4-1.4,0-2C11.9,5.2,12.5,4.8,13.2,4.8L13.2,4.8z M8,0
	c1.1,0,2.2,0.6,2.8,1.6c0.6,1,0.6,2.2,0,3.2c-0.6,1-1.7,1.6-2.8,1.6S5.8,5.8,5.2,4.8s-0.6-2.2,0-3.2C5.8,0.7,6.9,0,8,0L8,0z"/>
</svg>
