<?xml version="1.0" encoding="utf-8"?>
<!-- Generator: Adobe Illustrator 25.1.0, SVG Export Plug-In . SVG Version: 6.00 Build 0)  -->
<svg version="1.1" id="Layer_1" xmlns="http://www.w3.org/2000/svg" xmlns:xlink="http://www.w3.org/1999/xlink" x="0px" y="0px"
	 width="16px" height="16px" viewBox="0 0 16 16" style="enable-background:new 0 0 16 16;" xml:space="preserve">
<style type="text/css">
	.st0{fill:#FFFFFF;}
</style>
<g id="Layer_2_1_">
	<g>
		<path class="st0" d="M13.4,6.2C14.3,6.2,16,7,16,8c0,1-1.6,1.8-2.6,1.8h-3.2l-2.8,4.9c-0.2,0.3-0.4,0.4-0.8,0.4H5
			c-0.3,0-0.5-0.3-0.4-0.6L6,9.8H3.1l-1.2,1.6c-0.1,0.1-0.2,0.2-0.4,0.2H0.4c-0.2,0-0.4-0.2-0.4-0.4c0,0,0,0,0-0.1L0.9,8L0,4.9
			c0,0,0-0.1,0-0.1c0-0.2,0.2-0.4,0.4-0.4h1.2c0.1,0,0.3,0.1,0.4,0.2l1.2,1.6H6L4.6,1.5C4.5,1.2,4.7,0.9,5,0.9h1.6
			c0.3,0,0.6,0.2,0.8,0.4l2.8,4.9H13.4z"/>
	</g>
</g>
</svg>
