<?xml version="1.0" encoding="utf-8"?>
<!-- Generator: Adobe Illustrator 25.1.0, SVG Export Plug-In . SVG Version: 6.00 Build 0)  -->
<svg version="1.1" id="Layer_1" xmlns="http://www.w3.org/2000/svg" xmlns:xlink="http://www.w3.org/1999/xlink" x="0px" y="0px"
	 width="16px" height="16px" viewBox="0 0 16 16" style="enable-background:new 0 0 16 16;" xml:space="preserve">
<style type="text/css">
	.st0{fill:#FFFFFF;}
</style>
<path class="st0" d="M0,14.2c0,0.5,0.2,1,0.5,1.3S1.3,16,1.8,16h12.3c0.5,0,1-0.2,1.3-0.5l0,0c0.3-0.3,0.5-0.8,0.5-1.3V5H0V14.2z
	 M2.7,9.9l2.1-2.3l1.1,1l-1.7,1.8l1.7,1.8l-1.1,1L2.7,11C2.4,10.7,2.4,10.3,2.7,9.9z M13.4,11l-2.1,2.3l-1.1-1l1.7-1.8l-1.7-1.8
	l1.1-1l2.1,2.3C13.7,10.3,13.7,10.7,13.4,11z M16,1.8c0-0.5-0.2-1-0.5-1.3C15.1,0.2,14.7,0,14.2,0H1.8c-0.5,0-1,0.2-1.3,0.5l0,0
	C0.3,0.9,0,1.4,0,1.8v1.8h16V1.8L16,1.8z M2.4,2.9c-0.6,0-1-0.4-1-1s0.4-1,1-1s1,0.4,1,1S3,2.9,2.4,2.9z M5.6,2.9c-0.6,0-1-0.4-1-1
	s0.4-1,1-1s1,0.4,1,1S6.2,2.9,5.6,2.9z"/>
</svg>
