<?xml version="1.0" encoding="utf-8"?>
<!-- Generator: Adobe Illustrator 25.1.0, SVG Export Plug-In . SVG Version: 6.00 Build 0)  -->
<svg version="1.1" id="Layer_1" xmlns="http://www.w3.org/2000/svg" xmlns:xlink="http://www.w3.org/1999/xlink" x="0px" y="0px"
	 width="16px" height="16px" viewBox="0 0 16 16" style="enable-background:new 0 0 16 16;" xml:space="preserve">
<style type="text/css">
	.st0{fill:#FFFFFF;}
</style>
<path class="st0" d="M4.4,0.9C4.4,0.4,4.8,0,5.3,0h5.4c0.5,0,0.9,0.4,0.9,0.9v0.8c0,0.5-0.4,0.9-0.9,0.9H5.3c-0.5,0-0.9-0.4-0.9-0.9
	L4.4,0.9L4.4,0.9z M14.9,1.3v14.2c0,0.3-0.2,0.4-0.4,0.4h-13c-0.3,0-0.4-0.2-0.4-0.4V1.3c0-0.3,0.2-0.4,0.4-0.4h2.1v0.8
	c0,0.9,0.8,1.7,1.7,1.7h5.4c0.9,0,1.7-0.8,1.7-1.7V1h2.1C14.7,1,14.9,1.2,14.9,1.3z M2.6,8l0.7,0.7c0.1,0.2,0.3,0.2,0.4,0.2
	c0.1,0,0.3,0,0.3-0.2l1.8-1.8c0.3-0.3,0.3-0.6,0-0.8c-0.3-0.3-0.6-0.3-0.8,0L3.7,7.5L3.4,7.2C3.1,7,2.8,7,2.6,7.2
	C2.4,7.4,2.4,7.8,2.6,8z M13.1,7.1c0-0.4-0.2-0.8-0.3-0.8h-5c-0.3,0-0.3,0.3-0.3,0.8c0,0.4,0.2,0.8,0.3,0.8h5
	C12.9,7.8,13.1,7.5,13.1,7.1z M2.6,13.4l0.7,0.7c0.1,0.1,0.3,0.2,0.4,0.2c0.2,0,0.3-0.1,0.4-0.2l1.8-1.8c0.3-0.3,0.3-0.6,0-0.8
	c-0.3-0.3-0.6-0.3-0.8,0l-1.3,1.3l-0.3-0.3c-0.3-0.3-0.6-0.3-0.8,0C2.4,12.8,2.4,13.1,2.6,13.4z M13.1,12.5c0-0.4-0.2-0.8-0.3-0.8
	h-5c-0.2,0-0.3,0.3-0.3,0.8c0,0.4,0.2,0.8,0.3,0.8h5C12.9,13.1,13.1,12.8,13.1,12.5z"/>
</svg>
