<?xml version="1.0" encoding="utf-8"?>
<!-- Generator: Adobe Illustrator 25.1.0, SVG Export Plug-In . SVG Version: 6.00 Build 0)  -->
<svg version="1.1" id="Layer_1" xmlns="http://www.w3.org/2000/svg" xmlns:xlink="http://www.w3.org/1999/xlink" x="0px" y="0px"
	 width="16px" height="16px" viewBox="0 0 16 16" style="enable-background:new 0 0 16 16;" xml:space="preserve">
<style type="text/css">
	.st0{fill:#FFFFFF;}
</style>
<path class="st0" d="M6.4,7.1H0.8c-0.4,0-0.7-0.3-0.7-0.7V0.7C0.1,0.4,0.5,0,0.8,0h5.6c0.4,0,0.7,0.4,0.7,0.7v5.6
	C7.2,6.8,6.8,7.1,6.4,7.1z M15.9,6.3V0.7c0-0.4-0.4-0.7-0.7-0.7H9.6C9.2,0,8.8,0.4,8.8,0.7v5.6c0,0.4,0.4,0.7,0.7,0.7h5.6
	C15.5,7.1,15.9,6.8,15.9,6.3z M7.2,15.3V9.7c0-0.4-0.4-0.7-0.7-0.7H0.8c-0.4,0-0.7,0.4-0.7,0.7v5.6c0,0.4,0.4,0.7,0.7,0.7h5.6
	C6.8,16,7.2,15.6,7.2,15.3z M15.9,15.3V9.7c0-0.4-0.4-0.7-0.7-0.7H9.6c-0.4,0-0.7,0.4-0.7,0.7v5.6c0,0.4,0.4,0.7,0.7,0.7h5.6
	C15.5,16,15.9,15.6,15.9,15.3z"/>
</svg>
