<?xml version="1.0" encoding="utf-8"?>
<!-- Generator: Adobe Illustrator 25.1.0, SVG Export Plug-In . SVG Version: 6.00 Build 0)  -->
<svg version="1.1" id="Layer_1" xmlns="http://www.w3.org/2000/svg" xmlns:xlink="http://www.w3.org/1999/xlink" x="0px" y="0px"
	 width="16px" height="16px" viewBox="0 0 16 16" style="enable-background:new 0 0 16 16;" xml:space="preserve">
<style type="text/css">
	.st0{fill:#FFFFFF;}
</style>
<path class="st0" d="M15.9,11.9l-2-2c-0.2-0.1-0.3-0.1-0.4-0.1l-2.7,0.7c-0.1,0-0.3,0.2-0.3,0.3l-0.7,2.7c0,0.1,0,0.3,0.1,0.4l2,2
	c0.1,0.1,0.3,0.1,0.4,0.1l2.7-0.7c0.1,0,0.3-0.2,0.3-0.3l0.7-2.7C16,12.1,16,12,15.9,11.9z M6.1,2.2l-2-2.1C4,0,3.9,0,3.8,0L1.1,0.7
	C0.9,0.8,0.8,0.9,0.7,1L0,3.7C0,3.8,0,4,0.1,4l2,2c0.2,0.2,0.3,0.2,0.4,0.2l2.7-0.7c0.1-0.1,0.2-0.2,0.3-0.3l0.7-2.7
	C6.2,2.3,6.2,2.2,6.1,2.2z M15.9,3.1l-3.1-3C12.8,0,12.7,0,12.6,0l-4,1.2c-0.1,0-0.2,0.1-0.2,0.2L7.3,5.5c0,0.1,0,0.2,0.1,0.3l3.1,3
	c0.1,0.1,0.2,0.1,0.3,0.1l4-1.2c0.1,0,0.2-0.1,0.2-0.2L16,3.3C16,3.2,16,3.1,15.9,3.1z M13.8,3.9l-0.4,2c0,0.1-0.1,0.2-0.2,0.2
	l-2,0.5c-0.1,0-0.2,0-0.3-0.1L9.5,5C9.4,4.9,9.4,4.9,9.4,4.8l0.5-2c0-0.1,0.1-0.2,0.2-0.2l2-0.5c0.1,0,0.2,0,0.3,0.1l1.4,1.4
	C13.8,3.7,13.9,3.8,13.8,3.9z M8.6,10.2L5.6,7.4C5.5,7.3,5.4,7.2,5.3,7.3l-4,1.2c-0.1,0-0.2,0.1-0.2,0.2l-1,4c0,0.1,0,0.2,0.1,0.3
	l3.1,3C3.3,16,3.4,16,3.5,16l4-1.2c0.1,0,0.2-0.1,0.2-0.2l1.1-4.1C8.7,10.4,8.7,10.3,8.6,10.2z M6.6,11.1l-0.5,2
	c0,0.1-0.1,0.2-0.2,0.2l-2,0.5c-0.1,0-0.2,0-0.3-0.1l-1.4-1.4c-0.1-0.1-0.1-0.2-0.1-0.3l0.5-2c0-0.1,0.1-0.2,0.2-0.2l2-0.5
	c0.1,0,0.2,0,0.3,0.1l1.4,1.4C6.6,11,6.7,11.1,6.6,11.1z"/>
</svg>
