<?xml version="1.0" encoding="utf-8"?>
<!-- Generator: Adobe Illustrator 25.1.0, SVG Export Plug-In . SVG Version: 6.00 Build 0)  -->
<svg version="1.1" id="Layer_1" xmlns="http://www.w3.org/2000/svg" xmlns:xlink="http://www.w3.org/1999/xlink" x="0px" y="0px"
	 width="16px" height="16px" viewBox="0 0 16 16" style="enable-background:new 0 0 16 16;" xml:space="preserve">
<style type="text/css">
	.st0{fill:#FFFFFF;}
</style>
<g id="Layer_2_1_">
	<g>
		<path class="st0" d="M15.5,4c0,8-5.9,12-7.5,12c-1.6,0-7.5-4-7.5-12c0-0.6,0.4-1.1,0.9-1.4l6-2.5C7.6,0.1,7.8,0,8,0
			s0.4,0.1,0.6,0.1l6,2.5C15.1,2.9,15.5,3.4,15.5,4z M9,11c0-0.5-0.4-1-1-1s-1,0.4-1,1c0,0.5,0.4,1,1,1C8.5,12,9,11.5,9,11z
			 M7.2,8.3C7.2,8.7,7.6,9,8,9s0.8-0.3,0.8-0.8V4.7C8.8,4.3,8.4,4,8,4S7.2,4.3,7.2,4.7V8.3z"/>
	</g>
</g>
</svg>
