<?xml version="1.0" encoding="utf-8"?>
<!-- Generator: Adobe Illustrator 25.1.0, SVG Export Plug-In . SVG Version: 6.00 Build 0)  -->
<svg version="1.1" id="Layer_1" xmlns="http://www.w3.org/2000/svg" xmlns:xlink="http://www.w3.org/1999/xlink" x="0px" y="0px"
	 width="16px" height="16px" viewBox="0 0 16 16" style="enable-background:new 0 0 16 16;" xml:space="preserve">
<style type="text/css">
	.st0{fill:#FFFFFF;}
</style>
<g id="Layer_2_1_">
	<g>
		<path class="st0" d="M15.5,4c0,8-5.9,12-7.5,12c-1.6,0-7.5-4-7.5-12c0-0.6,0.4-1.1,0.9-1.4l6-2.5C7.6,0.1,7.8,0,8,0
			c0.2,0,0.4,0.1,0.6,0.1l6,2.5C15.1,2.9,15.5,3.4,15.5,4z M10.2,5.5c-0.2,0-0.4,0.1-0.6,0.3L7.2,8.6L6.3,7.7
			C6.1,7.5,5.9,7.5,5.8,7.5C5.3,7.5,5,7.8,5,8.2c0,0.2,0.1,0.4,0.2,0.5l1.5,1.5c0.1,0.1,0.3,0.2,0.5,0.2c0.1,0,0.4,0,0.6-0.2l3-3.5
			C10.9,6.6,11,6.4,11,6.3C11,6,10.8,5.5,10.2,5.5z"/>
	</g>
</g>
</svg>
