<?xml version="1.0" encoding="utf-8"?>
<!-- Generator: Adobe Illustrator 25.1.0, SVG Export Plug-In . SVG Version: 6.00 Build 0)  -->
<svg version="1.1" id="Layer_1" xmlns="http://www.w3.org/2000/svg" xmlns:xlink="http://www.w3.org/1999/xlink" x="0px" y="0px"
	 width="16px" height="16px" viewBox="0 0 16 16" style="enable-background:new 0 0 16 16;" xml:space="preserve">
<style type="text/css">
	.st0{fill:#FFFFFF;}
</style>
<path class="st0" d="M14.6,1.4H14c-0.1-0.6-0.6-1-1.3-1H3.2c-0.7,0-1.2,0.4-1.4,1H1.4C0.7,1.4,0,2,0,2.8v7.6c0,0.7,0.6,1.4,1.4,1.4
	h0.6c0.2,0.6,0.7,1,1.3,1h9.6c0.6,0,1.2-0.4,1.3-1h0.6c0.7,0,1.4-0.6,1.4-1.4V2.8C15.9,1.9,15.3,1.4,14.6,1.4L14.6,1.4z M12.4,3.5
	c0,0.7-0.5,1.2-1.2,1.2S10,4.2,10,3.5s0.5-1.2,1.2-1.2C11.8,2.3,12.4,2.8,12.4,3.5z M0.9,10.3V2.7c0-0.3,0.2-0.4,0.4-0.4h0.5v8.4
	H1.4C1.1,10.6,0.9,10.5,0.9,10.3L0.9,10.3z M12.8,11.7H3.2c-0.3,0-0.4-0.3-0.4-0.6v-0.8l3-5.2c0.3-0.5,0.9-0.5,1.2,0L9,8.4
	c0.1,0.1,0.2,0.1,0.3,0L10,7.2c0.3-0.5,0.8-0.5,1.1,0l1.9,3.2v0.8C13.1,11.5,13,11.7,12.8,11.7L12.8,11.7z M15,10.3
	c0,0.3-0.2,0.4-0.4,0.4h-0.5V2.3h0.5c0.3,0,0.4,0.2,0.4,0.4V10.3z M13.5,14.5c0,0.7-0.5,1.2-1.2,1.2c-0.7,0-1.2-0.5-1.2-1.2
	s0.5-1.2,1.2-1.2C13,13.3,13.5,13.8,13.5,14.5 M9.2,14.5c0,0.7-0.5,1.2-1.2,1.2s-1.2-0.5-1.2-1.2s0.5-1.2,1.2-1.2S9.2,13.8,9.2,14.5
	 M4.9,14.5c0,0.6-0.5,1.1-1.2,1.1s-1.2-0.5-1.2-1.2s0.5-1.2,1.2-1.2S4.9,13.8,4.9,14.5"/>
</svg>
