<?xml version="1.0" encoding="utf-8"?>
<!-- Generator: Adobe Illustrator 25.1.0, SVG Export Plug-In . SVG Version: 6.00 Build 0)  -->
<svg version="1.1" id="Layer_1" xmlns="http://www.w3.org/2000/svg" xmlns:xlink="http://www.w3.org/1999/xlink" x="0px" y="0px"
	 width="16px" height="16px" viewBox="0 0 16 16" style="enable-background:new 0 0 16 16;" xml:space="preserve">
<style type="text/css">
	.st0{fill:#FFFFFF;}
</style>
<path class="st0" d="M12.3,9.8C12,10,11.9,10.2,12,10.5l1.1,4.3c0.2,0.6-0.5,1.1-1,0.8l-3.8-2.4c-0.3-0.2-0.5-0.2-0.8,0l-3.8,2.4
	c-0.5,0.3-1.2-0.2-1-0.8l1.1-4.4c0.1-0.3,0-0.5-0.3-0.7L0.2,6.9C-0.2,6.5,0,5.7,0.6,5.7l4.5-0.3c0.3,0,0.5-0.2,0.6-0.4l1.6-4.2
	c0.3-0.6,1-0.6,1.3,0L10.2,5c0.2,0.3,0.4,0.4,0.7,0.4l4.5,0.3c0.6,0,0.9,0.9,0.4,1.2L12.3,9.8L12.3,9.8z"/>
</svg>
