<?xml version="1.0" encoding="utf-8"?>
<!-- Generator: Adobe Illustrator 25.1.0, SVG Export Plug-In . SVG Version: 6.00 Build 0)  -->
<svg version="1.1" id="Layer_1" xmlns="http://www.w3.org/2000/svg" xmlns:xlink="http://www.w3.org/1999/xlink" x="0px" y="0px"
	 width="16px" height="16px" viewBox="0 0 16 16" style="enable-background:new 0 0 16 16;" xml:space="preserve">
<style type="text/css">
	.st0{fill:#FFFFFF;}
</style>
<path class="st0" d="M15.2,8.6c0.6-2.4,0.1-5-1.6-6.7C10.8-0.9,5.9-0.6,2.7,2.7s-3.6,8.1-0.8,10.9c1.7,1.7,4.3,2.2,6.8,1.6l0,0
	c1.3,1.3,3.8,0.9,5.6-0.9C16.1,12.4,16.5,9.9,15.2,8.6L15.2,8.6z M8.1,14.3c-2.1,0.4-4-0.1-5.5-1.5c-2.4-2.5-2.1-6.7,0.8-9.5
	s7.1-3.2,9.5-0.7c1.4,1.4,1.9,3.4,1.5,5.4c-0.3,1.5-1.1,3-2.2,4.1C11.1,13.2,9.6,14,8.1,14.3L8.1,14.3z M12.1,3.4
	C10,1.3,6.5,1.6,4,4c-2.4,2.4-2.7,6-0.6,8c1.2,1.2,2.9,1.6,4.5,1.4l0,0c1.4-0.3,2.6-0.9,3.6-1.9c1-1,1.7-2.3,1.9-3.7
	C13.6,6.2,13.2,4.6,12.1,3.4L12.1,3.4z M9.7,9.7C9.5,9.9,9.4,10,9.1,10.1c-0.9,0.5-1.9,0.4-2.6-0.2C5.8,9.2,5.9,7.7,6.8,6.8
	s2.4-1,3.2-0.3c0.6,0.6,0.7,1.6,0.3,2.5l0,0C10,9.3,9.9,9.4,9.7,9.7L9.7,9.7z M8.8,7.5c-0.6,0.2-1,0.6-1.2,1.2
	C7.4,9.2,7.7,9.5,8.3,9.4c0.6-0.2,1-0.6,1.2-1.2C9.6,7.7,9.3,7.4,8.8,7.5z"/>
</svg>
