<?xml version="1.0" encoding="utf-8"?>
<!-- Generator: Adobe Illustrator 25.1.0, SVG Export Plug-In . SVG Version: 6.00 Build 0)  -->
<svg version="1.1" id="Layer_1" xmlns="http://www.w3.org/2000/svg" xmlns:xlink="http://www.w3.org/1999/xlink" x="0px" y="0px"
	 width="16px" height="16px" viewBox="0 0 16 16" style="enable-background:new 0 0 16 16;" xml:space="preserve">
<style type="text/css">
	.st0{fill:#FFFFFF;}
</style>
<g id="Layer_2_1_">
	<g>
		<path class="st0" d="M15,2v12c0,1.1-0.9,2-2,2H3c-1.1,0-2-0.9-2-2V2c0-1.1,0.9-2,2-2h10C14.1,0,15,0.9,15,2z M9.5,13.5h-3
			C6.2,13.5,6,13.7,6,14s0.2,0.5,0.5,0.5h3c0.3,0,0.5-0.2,0.5-0.5C10,13.7,9.8,13.5,9.5,13.5z"/>
	</g>
</g>
</svg>
