<?xml version="1.0" encoding="utf-8"?>
<!-- Generator: Adobe Illustrator 25.1.0, SVG Export Plug-In . SVG Version: 6.00 Build 0)  -->
<svg version="1.1" id="Layer_1" xmlns="http://www.w3.org/2000/svg" xmlns:xlink="http://www.w3.org/1999/xlink" x="0px" y="0px"
	 width="16px" height="16px" viewBox="0 0 16 16" style="enable-background:new 0 0 16 16;" xml:space="preserve">
<style type="text/css">
	.st0{fill:#FFFFFF;}
</style>
<path class="st0" d="M8,0.2C3.6,0.2,0,3.7,0,8s3.6,7.8,8,7.8c1.7,0,3.4-0.5,4.7-1.5l3.3,1.5l-1.3-3.5C15.6,11.1,16,9.6,16,8
	C15.9,3.7,12.3,0.2,8,0.2L8,0.2z M4.9,10.9v-1c0,0,0.9-0.4,0.9-1C4.8,9,4,8.1,4,7s0.8-1.9,1.7-1.9S7.5,6,7.5,7
	C7.5,9,6.2,10.9,4.9,10.9z M9.3,10.9v-1c0,0,0.9-0.4,0.9-1C9.2,9,8.4,8.1,8.4,7s0.8-1.9,1.7-1.9S11.9,6,11.9,7
	C11.9,9,10.6,10.9,9.3,10.9z"/>
</svg>
