<?xml version="1.0" encoding="utf-8"?>
<!-- Generator: Adobe Illustrator 25.1.0, SVG Export Plug-In . SVG Version: 6.00 Build 0)  -->
<svg version="1.1" id="Layer_1" xmlns="http://www.w3.org/2000/svg" xmlns:xlink="http://www.w3.org/1999/xlink" x="0px" y="0px"
	 width="16px" height="16px" viewBox="0 0 16 16" style="enable-background:new 0 0 16 16;" xml:space="preserve">
<style type="text/css">
	.st0{fill:#FFFFFF;}
</style>
<path class="st0" d="M15.2,0.9H0.8C0.6,0.9,0.3,0.9,0.3,1C0.2,1.1,0,1.4,0,1.6v9.6c0,0.2,0.1,0.3,0.3,0.5C0.4,11.9,0.6,12,0.8,12
	h1.9l1.5,3c0.1,0.2,0.2,0.3,0.3,0.3c0.2,0,0.3-0.1,0.3-0.3l1.4-3.1h8.9c0.2,0,0.3-0.1,0.5-0.3s0.3-0.3,0.3-0.5V1.6
	c0-0.2-0.1-0.3-0.3-0.5C15.7,0.9,15.4,0.9,15.2,0.9L15.2,0.9z M8.2,9.3C8.1,9.3,8,9.3,8,9.4l-1.8,0.9l0,0c-0.1,0-0.1,0.1-0.2,0.1
	s-0.3-0.1-0.3-0.2c-0.1-0.1-0.1-0.2-0.1-0.3l0.3-2l0,0c0-0.2,0-0.3-0.1-0.3L4.3,6C4.3,5.9,4.2,5.7,4.3,5.6c0-0.2,0.2-0.3,0.3-0.3
	l2-0.3l0,0c0.1,0,0.3-0.1,0.3-0.3l0.9-1.9l0,0C7.9,2.7,8,2.6,8.2,2.6s0.3,0.1,0.3,0.3l0.9,1.9l0,0C9.5,4.9,9.6,4.9,9.7,5l2,0.3l0,0
	c0.2,0,0.3,0.1,0.3,0.3c0.1,0.2,0,0.3-0.1,0.4l-1.4,1.4c-0.1,0.1-0.2,0.3-0.1,0.3l0.3,2l0,0c0,0.1,0,0.3-0.1,0.3
	c-0.1,0.1-0.2,0.2-0.3,0.2c-0.1,0-0.2,0-0.2-0.1L8.4,9.3C8.3,9.3,8.3,9.3,8.2,9.3L8.2,9.3z"/>
</svg>
