<?xml version="1.0" encoding="utf-8"?>
<!-- Generator: Adobe Illustrator 25.1.0, SVG Export Plug-In . SVG Version: 6.00 Build 0)  -->
<svg version="1.1" id="Layer_1" xmlns="http://www.w3.org/2000/svg" xmlns:xlink="http://www.w3.org/1999/xlink" x="0px" y="0px"
	 width="16px" height="16px" viewBox="0 0 16 16" style="enable-background:new 0 0 16 16;" xml:space="preserve">
<style type="text/css">
	.st0{fill:#FFFFFF;}
</style>
<path class="st0" d="M9.4,5C9.3,5.1,8.2,6.2,6.6,7.5c0.3,0.3,0.5,0.6,0.8,0.9c0.4,0.4,0.8,0.8,1.2,1c1.4-1.6,2.6-2.9,2.7-2.9
	c0.1-0.3,0.3-0.2,0.3-0.2c1.2,0.3,2.5,0,3.1-1.3c0.6-1.2,0.1-2.1-0.3-2.7c-0.1-0.2-0.3-0.1-0.3,0s-0.7,1.5-0.7,1.5
	c-0.2,0.3-0.6,0.7-1.5,0.3c-0.8-0.4-0.9-0.9-0.8-1.3c0,0,0.6-1.3,0.7-1.5c0.1-0.2-0.1-0.3-0.1-0.2c-0.8,0.1-1.7,0.3-2.3,1.4
	C9.3,3.2,9.3,3.8,9.6,4.4C9.6,4.6,9.6,4.8,9.4,5L9.4,5z M4,11.8c-0.3-0.3-0.7-0.8-1-1.1c-1.3,1.2-2.3,2-2.3,2
	c-0.1,0.1-0.1,0.1-0.2,0.2c-0.7,0.8-0.6,1.9,0.2,2.6s1.9,0.6,2.6-0.2c0,0,0.8-1,2-2.3C4.9,12.7,4.5,12.3,4,11.8L4,11.8z M1.6,0.9
	C0.2,2.3,0.2,4,0.2,4c0.3,1.7,2.3,4.8,4.5,7.2s5.4,4.2,7.2,4.5c0,0,1.8-0.1,3.1-1.4l0,0l0.8-0.8c0.1-0.1,0.1-0.3,0-0.4l-3.5-3.4
	c-0.1-0.1-0.3-0.1-0.4,0L11,10.5l0,0l-0.8,0.9c0,0-1.4-0.3-3.5-2.4C4.8,7,4.5,5.5,4.5,5.5l0.9-0.8l0,0l0,0l0,0L6.1,4
	c0.1-0.1,0.1-0.3,0-0.4L2.8,0.1C2.7,0,2.5,0,2.3,0.1L1.6,0.9L1.6,0.9z"/>
</svg>
