<?xml version="1.0" encoding="utf-8"?>
<!-- Generator: Adobe Illustrator 25.1.0, SVG Export Plug-In . SVG Version: 6.00 Build 0)  -->
<svg version="1.1" id="Layer_1" xmlns="http://www.w3.org/2000/svg" xmlns:xlink="http://www.w3.org/1999/xlink" x="0px" y="0px"
	 width="16px" height="16px" viewBox="0 0 16 16" style="enable-background:new 0 0 16 16;" xml:space="preserve">
<style type="text/css">
	.st0{fill:#FFFFFF;}
</style>
<g id="Layer_2_1_">
	<g>
		<path class="st0" d="M14.5,1.5v1C14.5,2.8,14.3,3,14,3H2C1.7,3,1.5,2.8,1.5,2.5v-1C1.5,1.2,1.7,1,2,1h2.5l0.4-0.7
			C4.9,0.1,5.1,0,5.3,0h5.4c0.2,0,0.4,0.1,0.5,0.3L11.5,1H14C14.3,1,14.5,1.2,14.5,1.5z M2.5,4h11v10.5c0,0.8-0.7,1.5-1.5,1.5H4
			c-0.8,0-1.5-0.7-1.5-1.5V4z M5.5,13.5C5.5,13.8,5.7,14,6,14s0.5-0.2,0.5-0.5v-7C6.5,6.2,6.3,6,6,6C5.7,6,5.5,6.2,5.5,6.5
			C5.5,6.5,5.5,13.5,5.5,13.5z M9.5,13.5c0,0.3,0.2,0.5,0.5,0.5s0.5-0.2,0.5-0.5v-7C10.5,6.2,10.3,6,10,6C9.7,6,9.5,6.2,9.5,6.5
			V13.5z"/>
	</g>
</g>
</svg>
