<?xml version="1.0" encoding="utf-8"?>
<!-- Generator: Adobe Illustrator 25.1.0, SVG Export Plug-In . SVG Version: 6.00 Build 0)  -->
<svg version="1.1" id="Layer_1" xmlns="http://www.w3.org/2000/svg" xmlns:xlink="http://www.w3.org/1999/xlink" x="0px" y="0px"
	 width="16px" height="16px" viewBox="0 0 16 16" style="enable-background:new 0 0 16 16;" xml:space="preserve">
<style type="text/css">
	.st0{fill:#FFFFFF;}
</style>
<g id="Layer_2_1_">
	<g>
		<g>
			<path class="st0" d="M14,3c1.1,0,2,0.9,2,2v9c0,1.1-0.9,2-2,2H2c-1.1,0-2-0.9-2-2.1V5c0-1.1,0.9-2,2-2h3.9L4.2,1.3
				C3.9,1,3.9,0.5,4.2,0.2c0.3-0.3,0.8-0.3,1.1,0L8,2.9l2.7-2.7c0.3-0.3,0.8-0.3,1.1,0c0.3,0.3,0.3,0.8,0,1.1L10.1,3L14,3z M12,12V7
				c0-1.1-0.9-2-2-2H4C2.9,5,2,5.9,2,7v5c0,1.1,0.9,2,2,2h6C11.1,14,12,13.1,12,12C12,12,12,12,12,12z M14,10.5
				c0.4,0,0.7-0.3,0.7-0.7S14.4,9,14,9c-0.4,0-0.7,0.3-0.7,0.7C13.2,10.2,13.6,10.5,14,10.5z M13.2,7.2C13.2,7.6,13.6,8,14,8
				c0.4,0,0.7-0.3,0.7-0.7c0-0.4-0.3-0.7-0.7-0.7C13.6,6.5,13.2,6.8,13.2,7.2z"/>
		</g>
	</g>
</g>
</svg>
