<?xml version="1.0" encoding="utf-8"?>
<!-- Generator: Adobe Illustrator 25.1.0, SVG Export Plug-In . SVG Version: 6.00 Build 0)  -->
<svg version="1.1" id="Layer_1" xmlns="http://www.w3.org/2000/svg" xmlns:xlink="http://www.w3.org/1999/xlink" x="0px" y="0px"
	 width="16px" height="16px" viewBox="0 0 16 16" style="enable-background:new 0 0 16 16;" xml:space="preserve">
<style type="text/css">
	.st0{fill:#FFFFFF;}
</style>
<g id="Layer_2_1_">
	<g>
		<g>
			<path class="st0" d="M16,7.9C16.1,8.5,15.6,9,15,9H1C0.4,9-0.1,8.5,0,7.9c0.5-3.6,3.4-6.4,7-6.8V1c0-0.6,0.4-1,1-1s1,0.4,1,1v0.1
				C12.6,1.5,15.5,4.3,16,7.9z M7,10h2v3.5C9,14.9,7.9,16,6.5,16c-1,0-2-0.7-2.4-1.7c-0.2-0.5,0.1-1.1,0.6-1.3s1.1,0.1,1.3,0.6
				C6.1,13.8,6.2,14,6.5,14C6.7,14,7,13.8,7,13.5L7,10L7,10z"/>
		</g>
	</g>
</g>
</svg>
