<?xml version="1.0" encoding="utf-8"?>
<!-- Generator: Adobe Illustrator 25.1.0, SVG Export Plug-In . SVG Version: 6.00 Build 0)  -->
<svg version="1.1" id="Layer_1" xmlns="http://www.w3.org/2000/svg" xmlns:xlink="http://www.w3.org/1999/xlink" x="0px" y="0px"
	 width="16px" height="16px" viewBox="0 0 16 16" style="enable-background:new 0 0 16 16;" xml:space="preserve">
<style type="text/css">
	.st0{fill:#FFFFFF;}
</style>
<path class="st0" d="M1.8,0h12.3c1,0,1.9,0.9,1.9,1.9V14c0,1.1-0.9,2-1.9,2H1.8c-1,0-1.8-0.9-1.8-2V1.9C0,0.9,0.9,0,1.8,0L1.8,0z
	 M10.9,7.9L6.3,5.3c-0.4-0.3-0.9,0-0.9,0.4v5.3c0,0.4,0.4,0.7,0.9,0.4l4.6-2.6C11.2,8.7,11.2,8.2,10.9,7.9L10.9,7.9z"/>
</svg>
