<?xml version="1.0" encoding="utf-8"?>
<!-- Generator: Adobe Illustrator 25.1.0, SVG Export Plug-In . SVG Version: 6.00 Build 0)  -->
<svg version="1.1" id="Layer_1" xmlns="http://www.w3.org/2000/svg" xmlns:xlink="http://www.w3.org/1999/xlink" x="0px" y="0px"
	 width="16px" height="16px" viewBox="0 0 16 16" style="enable-background:new 0 0 16 16;" xml:space="preserve">
<style type="text/css">
	.st0{fill:#FFFFFF;}
</style>
<g id="Layer_2_1_">
	<g>
		<g>
			<path class="st0" d="M16,3.2v10c0,1.1-0.9,2-2,2H2c-1.1,0-2-0.9-2-2v-10c0-1.1,0.9-2,2-2h12C15.1,1.2,16,2.1,16,3.2z M4,4.2
				c0-0.6-0.4-1-1-1s-1,0.4-1,1s0.4,1,1,1C3.6,5.2,4,4.7,4,4.2z M7,4.2c0-0.6-0.4-1-1-1s-1,0.4-1,1s0.4,1,1,1S7,4.7,7,4.2z M10,4.2
				c0-0.6-0.4-1-1-1c-0.6,0-1,0.4-1,1s0.4,1,1,1C9.6,5.2,10,4.7,10,4.2z"/>
		</g>
	</g>
</g>
</svg>
